<?xml version="1.0" encoding="UTF-8"?><svg id="Ebene_1" xmlns="http://www.w3.org/2000/svg" viewBox="0 0 100 100"><defs><style>.cls-1{fill:#29abe2;}</style></defs><path class="cls-1" d="M89.03,57.09c-4.55,.98-9.09,1.97-13.64,2.95-5.8-3.35-11.6-6.7-17.41-10.05,5.8-3.35,11.6-6.7,17.41-10.05,4.55,.98,9.09,1.97,13.64,2.95,5.01,1.08,7.15-6.61,2.12-7.7-1.83-.4-3.66-.79-5.48-1.19,2.1-1.22,4.21-2.43,6.31-3.65,4.45-2.57,.43-9.47-4.03-6.89-2.09,1.21-4.18,2.42-6.27,3.62,.56-1.76,1.13-3.52,1.7-5.29,1.57-4.9-6.13-7-7.7-2.12-1.43,4.45-2.85,8.9-4.28,13.34-5.8,3.35-11.6,6.7-17.4,10.05V22.99c3.13-3.45,6.26-6.9,9.39-10.36,3.44-3.8-2.18-9.46-5.64-5.64-1.25,1.38-2.5,2.76-3.75,4.13V3.85c0-5.13-7.98-5.14-7.98,0v7.27c-1.25-1.38-2.5-2.76-3.75-4.13-3.46-3.81-9.09,1.85-5.64,5.64,3.13,3.45,6.26,6.9,9.4,10.36v20.1c-5.8-3.35-11.61-6.69-17.41-10.04-1.43-4.45-2.86-8.89-4.28-13.34-1.56-4.87-9.27-2.79-7.7,2.12,.57,1.76,1.13,3.52,1.7,5.29-2.09-1.21-4.18-2.41-6.27-3.62-4.46-2.57-8.48,4.32-4.03,6.89,2.11,1.21,4.21,2.43,6.32,3.64-1.83,.4-3.65,.79-5.48,1.19-5.02,1.09-2.9,8.78,2.12,7.7,4.55-.98,9.09-1.97,13.64-2.96,5.8,3.35,11.61,6.7,17.41,10.04-5.8,3.35-11.6,6.7-17.4,10.05-4.55-.98-9.09-1.97-13.64-2.95-5.01-1.08-7.15,6.61-2.12,7.7,1.83,.39,3.66,.79,5.48,1.19-2.1,1.22-4.21,2.43-6.31,3.65-4.45,2.57-.43,9.47,4.03,6.89,2.09-1.21,4.18-2.42,6.27-3.62-.57,1.76-1.13,3.52-1.7,5.28-1.57,4.9,6.13,7,7.7,2.12,1.43-4.45,2.85-8.9,4.28-13.34,5.8-3.35,11.6-6.7,17.4-10.05,0,6.7,0,13.4,0,20.1-3.13,3.45-6.26,6.9-9.39,10.36-3.44,3.8,2.18,9.46,5.64,5.64,1.25-1.38,2.5-2.76,3.75-4.14,0,2.42,0,4.85,0,7.27,0,5.13,7.98,5.14,7.98,0,0-2.42,0-4.85,0-7.27,1.25,1.38,2.5,2.76,3.75,4.13,3.46,3.81,9.09-1.85,5.64-5.64-3.13-3.45-6.26-6.9-9.4-10.35,0-6.7,0-13.4,0-20.1,5.8,3.35,11.6,6.7,17.4,10.04,1.43,4.45,2.85,8.89,4.28,13.34,1.56,4.87,9.27,2.79,7.7-2.12-.57-1.76-1.13-3.52-1.7-5.28,2.09,1.21,4.18,2.41,6.27,3.62,4.46,2.57,8.48-4.32,4.03-6.89-2.1-1.22-4.21-2.43-6.32-3.65,1.83-.4,3.66-.79,5.48-1.19,5.02-1.09,2.9-8.78-2.12-7.7Z"/></svg>