<?xml version="1.0" encoding="UTF-8"?><svg id="Ebene_1" xmlns="http://www.w3.org/2000/svg" viewBox="0 0 100 100"><defs><style>.cls-1{fill:#ccc;}</style></defs><path d="M99.68,38.46c-1.14-6.8-5.47-11.42-11.31-12.05-2.96-.33-6.01-.1-9.06,.65,0-.36,.01-.72,.01-1.08v-.46c-.02-1.5-1.24-2.72-2.75-2.72H2.74C1.24,22.8,.01,24.02,.01,25.53v.45c-.01,20.19,6.42,39.02,17.18,50.37,.52,.54,1.24,.85,1.99,.85H60.14c.75,0,1.47-.31,1.98-.85,2.72-2.87,5.16-6.21,7.29-9.93,1.35,.1,3,.18,4.79,.18,6.18,0,11.26-.92,15.1-2.73,7.99-3.77,11.89-16.42,10.38-25.41Zm-21.78,3.75c1.82-1.03,4.65-2.26,7.76-2.26h.35c.06,.21,.12,.46,.17,.77,.77,4.59-1.58,10.07-2.72,10.77-1.75,.83-4.63,1.31-8.18,1.39,1.09-3.41,1.96-6.98,2.62-10.67Zm-9.03,12.48c-.23,.61-.47,1.22-.71,1.82-.03,.07-.06,.14-.09,.22-.8,1.91-1.67,3.77-2.61,5.52h0c-1.9,3.55-4.08,6.74-6.52,9.48H20.38C11.42,61.72,5.95,45.71,5.5,28.27H73.81c-.02,.92-.07,1.83-.12,2.74-.02,.43-.05,.86-.08,1.29-.04,.55-.09,1.11-.14,1.66-.03,.39-.06,.78-.1,1.16-.1,.9-.2,1.79-.32,2.68-.02,.19-.06,.39-.08,.58-.82,5.79-2.21,11.28-4.1,16.31Zm18.1,4.23c-3.07,1.44-7.48,2.21-12.77,2.21-.72,0-1.41-.02-2.06-.04,.03-.06,.05-.12,.08-.17,.31-.7,.62-1.41,.91-2.13,.06-.14,.13-.28,.18-.42h.91c4.96,0,8.86-.65,11.58-1.93,4.27-2.01,6.75-10.83,5.78-16.63-.71-4.24-2.88-5.1-4.1-5.24-.6-.06-1.21-.1-1.82-.1-2.52,0-4.86,.56-6.85,1.3,.01-.07,.01-.15,.02-.22,.09-.86,.16-1.74,.23-2.61,0-.05,.01-.1,.01-.15,2.96-.93,5.9-1.25,8.7-.94,3.4,.37,5.77,3.11,6.51,7.51,1.13,6.76-1.88,16.99-7.31,19.56Z"/><path class="cls-1" d="M86.97,58.92c-3.07,1.44-7.48,2.21-12.77,2.21-.72,0-1.41-.02-2.06-.04,.03-.06,.05-.12,.08-.17,.31-.7,.62-1.41,.91-2.13,.06-.14,.13-.28,.18-.42h.91c4.96,0,8.86-.65,11.58-1.93,4.27-2.01,6.75-10.83,5.78-16.63-.71-4.24-2.88-5.1-4.1-5.24-.6-.06-1.21-.1-1.82-.1-2.52,0-4.86,.56-6.85,1.3,.01-.07,.01-.15,.02-.22,.09-.86,.16-1.74,.23-2.61,0-.05,.01-.1,.01-.15,2.96-.93,5.9-1.25,8.7-.94,3.4,.37,5.77,3.11,6.51,7.51,1.13,6.76-1.88,16.99-7.31,19.56Z"/><path class="cls-1" d="M73.81,28.27c-.02,.92-.07,1.83-.12,2.74-.02,.43-.05,.86-.08,1.29-.04,.55-.09,1.11-.14,1.66-.03,.39-.06,.78-.1,1.16-.1,.9-.2,1.79-.32,2.68-.02,.19-.06,.39-.08,.58-.82,5.79-2.21,11.28-4.1,16.31-.23,.61-.47,1.22-.71,1.82-.03,.07-.06,.14-.09,.22-.8,1.91-1.67,3.77-2.61,5.52h0c-1.9,3.55-4.08,6.74-6.52,9.48H20.38C11.42,61.72,5.95,45.71,5.5,28.27H73.81Z"/></svg>