<?xml version="1.0" encoding="UTF-8"?><svg id="Ebene_1" xmlns="http://www.w3.org/2000/svg" viewBox="0 0 100 100"><defs><style>.cls-1{fill:#f15a24;}</style></defs><g><path d="M0,37.66H100v4.35c0,18.67-9.96,35.87-26.09,45.19v6.98H26.09v-6.98C9.96,77.88,0,60.68,0,42.01"/><path class="cls-1" d="M30.43,89.84h39.13v-5.2l1.13-.62c15.39-8.4,24.95-24.5,24.95-42.01H4.35c0,17.51,9.56,33.61,24.95,42.01l1.13,.62v5.2Z"/><path class="cls-1" d="M32.65,31.97c-4.79,0-8.7-3.9-8.7-8.7,0-1.58,.43-3.12,1.23-4.46l2.5-4.18c.4-.67,.61-1.44,.61-2.23,0-2.4-1.95-4.35-4.35-4.35V3.71c4.79,0,8.7,3.9,8.7,8.7,0,1.58-.43,3.12-1.23,4.46l-2.5,4.18c-.4,.67-.61,1.44-.61,2.23,0,2.4,1.95,4.35,4.35,4.35v4.35Z"/><path class="cls-1" d="M56.04,31.97c-4.79,0-8.7-3.9-8.7-8.7,0-1.58,.43-3.12,1.23-4.46l2.5-4.18c.4-.67,.61-1.44,.61-2.23,0-2.4-1.95-4.35-4.35-4.35V3.71c4.79,0,8.7,3.9,8.7,8.7,0,1.58-.43,3.12-1.23,4.46l-2.5,4.18c-.4,.67-.61,1.44-.61,2.23,0,2.4,1.95,4.35,4.35,4.35v4.35Z"/></g><path class="cls-1" d="M78.31,31.69c-4.79,0-8.7-3.9-8.7-8.7,0-1.58,.43-3.12,1.23-4.46l2.5-4.18c.4-.67,.61-1.44,.61-2.23,0-2.4-1.95-4.35-4.35-4.35V3.43c4.79,0,8.7,3.9,8.7,8.7,0,1.58-.43,3.12-1.23,4.46l-2.5,4.18c-.4,.67-.61,1.44-.61,2.23,0,2.4,1.95,4.35,4.35,4.35v4.35Z"/></svg>