<?xml version="1.0" encoding="UTF-8"?><svg id="Ebene_1" xmlns="http://www.w3.org/2000/svg" viewBox="0 0 100 100"><defs><style>.cls-1{fill:#fff;}</style></defs><g><path d="M94.28,18.59H5.72c-3.16,0-5.72,2.56-5.72,5.71v51.4c0,3.15,2.56,5.71,5.72,5.71H94.28c3.16,0,5.72-2.56,5.72-5.71V24.3c0-3.15-2.56-5.71-5.72-5.71Zm-19.78,45.71h17.37c.89,0,1.61,.72,1.61,1.6v5.7c0,.88-.72,1.61-1.61,1.61h-17.37v-8.91Zm-2.42,6.56H11.37c-.48,0-.87-.39-.87-.87V30.01c0-.48,.39-.87,.87-.87h60.71v41.72Zm0-44.14H11.37c-1.81,0-3.29,1.47-3.29,3.29v39.98c0,1.82,1.48,3.29,3.29,3.29h60.71v5.71H5.72c-1.82,0-3.3-1.48-3.3-3.29V24.3c0-1.81,1.48-3.29,3.3-3.29H72.08v5.71Zm25.5,48.98c0,1.81-1.48,3.29-3.3,3.29h-19.78v-3.36h17.37c2.22,0,4.03-1.81,4.03-4.03v-5.7c0-2.22-1.81-4.02-4.03-4.02h-17.37V21.01h19.78c1.82,0,3.3,1.48,3.3,3.29v51.4Z"/><path class="cls-1" d="M93.48,65.9v5.7c0,.88-.72,1.61-1.61,1.61h-17.37v-8.91h17.37c.89,0,1.61,.72,1.61,1.6Z"/><path class="cls-1" d="M11.37,29.14c-.48,0-.87,.39-.87,.87v39.98c0,.48,.39,.87,.87,.87h60.71V29.14H11.37ZM62.65,62.76c-1.94,1.16-4.23,1.95-5.43,2.32-2.06,.64-3.56,.99-5.29,.99h-.39c-2.84-.09-4.72-.56-6.82-1.29-1.43-.49-2.31-.86-3.65-1.41-.54-.23-1.15-.49-1.91-.8-1.81-.73-3.49-1.24-5.8-1.28-1.59-.03-4.51,.35-6.13,.95-4.06,1.51-4.34,1.62-6.78,2.71-.61,.27-1.33-.01-1.6-.62-.27-.61,.01-1.32,.62-1.59,2.46-1.1,2.81-1.24,6.92-2.77,1.91-.7,5.17-1.14,7.02-1.1,2.84,.06,4.88,.74,6.66,1.46,.77,.32,1.39,.58,1.93,.8,1.3,.54,2.15,.9,3.5,1.37,1.95,.67,3.57,1.07,6.12,1.15,1.57,.04,2.88-.26,4.89-.88,1.09-.34,3.17-1.05,4.89-2.08,.57-.35,1.31-.16,1.66,.41,.34,.57,.16,1.32-.41,1.66Zm0-12.87c-1.94,1.16-4.23,1.95-5.43,2.32-2.06,.64-3.56,.99-5.29,.99h-.39c-2.84-.09-4.72-.56-6.82-1.29-1.43-.49-2.31-.85-3.64-1.41-.54-.23-1.16-.48-1.92-.8-1.81-.73-3.49-1.23-5.8-1.28-1.59-.03-4.5,.35-6.13,.95-4.06,1.51-4.34,1.62-6.78,2.71-.61,.27-1.33,0-1.6-.62-.27-.61,.01-1.32,.62-1.59,2.46-1.1,2.81-1.24,6.92-2.77,1.91-.7,5.16-1.14,7.02-1.1,2.84,.06,4.88,.74,6.66,1.46,.77,.32,1.4,.58,1.94,.81,1.29,.54,2.14,.89,3.49,1.36,1.95,.67,3.57,1.07,6.12,1.15,1.57,.04,2.88-.26,4.89-.88,1.09-.34,3.17-1.05,4.89-2.08,.57-.35,1.31-.16,1.66,.41,.34,.57,.16,1.32-.41,1.66Zm0-12.62c-1.94,1.17-4.23,1.96-5.43,2.32-2.06,.64-3.56,1-5.29,1-.12,0-.25-.01-.39-.01-2.84-.09-4.72-.55-6.82-1.28-1.43-.49-2.31-.86-3.64-1.42-.54-.22-1.16-.48-1.92-.79-1.81-.74-3.49-1.24-5.8-1.29-1.59-.03-4.5,.36-6.13,.96-4.06,1.5-4.34,1.62-6.78,2.7-.61,.27-1.33,0-1.6-.61-.27-.61,.01-1.33,.62-1.6,2.46-1.1,2.81-1.24,6.92-2.76,1.91-.71,5.16-1.15,7.02-1.11,2.84,.06,4.88,.74,6.66,1.47,.77,.31,1.4,.57,1.94,.8,1.29,.54,2.14,.89,3.49,1.36,1.95,.67,3.57,1.07,6.12,1.15,1.57,.05,2.88-.26,4.89-.88,1.09-.33,3.17-1.05,4.89-2.08,.57-.35,1.31-.16,1.66,.41,.34,.58,.16,1.32-.41,1.66Z"/><path class="cls-1" d="M8.08,30.01v39.98c0,1.82,1.48,3.29,3.29,3.29h60.71v5.71H5.72c-1.82,0-3.3-1.48-3.3-3.29V24.3c0-1.81,1.48-3.29,3.3-3.29H72.08v5.71H11.37c-1.81,0-3.29,1.47-3.29,3.29Z"/><path class="cls-1" d="M94.28,21.01h-19.78V61.88h17.37c2.22,0,4.03,1.8,4.03,4.02v5.7c0,2.22-1.81,4.03-4.03,4.03h-17.37v3.36h19.78c1.82,0,3.3-1.48,3.3-3.29V24.3c0-1.81-1.48-3.29-3.3-3.29Zm1.05,15.14c0,.89-.72,1.61-1.61,1.61h-15.32c-.89,0-1.62-.72-1.62-1.61v-8.59c0-.89,.73-1.61,1.62-1.61h15.32c.89,0,1.61,.72,1.61,1.61v8.59Z"/><path d="M93.72,37.76c.89,0,1.61-.72,1.61-1.61v-8.59c0-.89-.72-1.61-1.61-1.61h-15.32c-.89,0-1.62,.72-1.62,1.61v8.59c0,.89,.73,1.61,1.62,1.61m14.51-2.42h-13.7v-6.97h13.7v6.97Z"/><rect class="cls-1" x="79.21" y="28.37" width="13.7" height="6.97"/></g><g><rect x="38" y="32" width="3.32" height="22.15" rx="1.5" ry="1.5"/><rect x="43.42" y="40.86" width="3.44" height="16.11" rx="1.5" ry="1.5" transform="translate(58.04 -16.38) rotate(53.88)"/></g></svg>