<?xml version="1.0" encoding="UTF-8"?><svg id="Ebene_1" xmlns="http://www.w3.org/2000/svg" viewBox="0 0 100 100"><defs><style>.cls-1{fill:#c1272d;}.cls-2{fill:#ed1c24;}</style></defs><path d="M99.99,23.19c-.02-1.24-.21-2.45-.59-3.63-2.04-6.37-8.83-10.17-18.15-10.17-.2,0-.39,0-.6,0-11.69,.2-19.53,2.93-27.12,5.58-4.94,1.72-9.6,3.35-15.15,4.21-2.27,.35-4.66,.64-6.96,.91-12.77,1.53-25.96,3.11-30.18,16.62C.38,39.45-.02,42.28,.01,45.12c0,.02-.01,.05-.01,.08v14.92c.09,7.97,3.45,15.41,9.44,20.96,6.74,6.23,16.27,9.53,27.57,9.53,.35,0,.7-.01,1.05-.01,20.16-.36,29.1-11.18,37.75-21.64,4.17-5.04,8.1-9.8,13.26-13.5,7.02-5.04,11-11.35,10.93-17.29v-14.92s-.01-.04-.01-.06ZM5.3,37.99c3.4-10.89,14.68-12.24,26.62-13.66,2.35-.28,4.77-.57,7.11-.94,5.94-.92,11-2.69,15.9-4.4,7.27-2.53,14.79-5.15,25.8-5.34h.52c7.38,0,12.65,2.69,14.11,7.21,.28,.88,.4,1.81,.38,2.75,0,.18-.02,.35-.03,.52-.01,.14-.02,.27-.04,.4-.02,.18-.04,.35-.07,.53-.03,.14-.06,.29-.09,.44-.04,.16-.07,.32-.11,.49-.05,.19-.11,.38-.17,.57-.04,.12-.08,.24-.12,.36-.11,.32-.24,.64-.38,.97-.02,.04-.05,.09-.07,.14-.13,.29-.27,.57-.42,.86-.04,.07-.08,.14-.12,.22-.15,.27-.31,.53-.47,.8-.05,.07-.09,.14-.14,.21-.18,.28-.37,.57-.58,.85-.03,.05-.06,.1-.1,.14-.5,.68-1.06,1.36-1.68,2.03-.01,0-.03,.03-.04,.04-.29,.3-.58,.6-.89,.9-.08,.08-.16,.15-.24,.23-.25,.24-.5,.47-.77,.7-.1,.1-.21,.19-.32,.28-.26,.23-.53,.45-.8,.67-.11,.08-.21,.17-.32,.26-.39,.3-.78,.6-1.18,.89-5.61,4.02-9.9,9.22-14.06,14.24-8.4,10.17-16.34,19.77-34.55,20.1h-.97c-.75,0-1.49-.01-2.22-.04-.11-.01-.23-.02-.34-.02-.63-.04-1.26-.07-1.87-.13-.08-.01-.15-.02-.22-.02-.68-.07-1.35-.14-2-.23h-.02c-7.08-.99-13.1-3.59-17.62-7.6,0-.01-.02-.02-.03-.03-.89-.79-1.72-1.64-2.49-2.54-.02-.03-.05-.06-.07-.09-.35-.41-.68-.83-1-1.27-.04-.05-.08-.1-.12-.15-.24-.34-.48-.67-.7-1.02-.03-.04-.07-.09-.1-.14-.77-1.2-1.44-2.45-1.99-3.74,0-.01,0-.03-.02-.05-.17-.4-.33-.8-.48-1.21-.02-.07-.04-.13-.06-.2-.13-.36-.25-.72-.36-1.09-.03-.08-.05-.17-.08-.26-.1-.35-.19-.7-.28-1.06-.02-.09-.04-.17-.06-.26-.09-.37-.16-.74-.23-1.11-.02-.07-.03-.14-.04-.22-.16-.89-.26-1.79-.32-2.7v-.08c-.15-2.76,.18-5.54,1.01-8.2Zm81.29,14.02c-5.61,4.02-9.9,9.22-14.06,14.24-8.4,10.17-16.34,19.77-34.55,20.1h-.97c-11.15,0-19.3-3.41-24.69-8.39-5.38-4.98-8-11.54-8.07-17.86v-.2c.79,1.26,1.67,2.48,2.66,3.63h0c.42,.5,.85,.98,1.3,1.44,.06,.07,.12,.13,.18,.19,.34,.34,.69,.69,1.05,1.02,.05,.05,.11,.09,.17,.14,.19,.18,.39,.35,.59,.52,.29,.25,.57,.5,.87,.73,.21,.17,.42,.34,.63,.5,.32,.24,.65,.49,.99,.72,.18,.13,.36,.26,.55,.39,.46,.31,.93,.61,1.4,.89,.07,.05,.14,.09,.22,.14,1.18,.7,2.42,1.34,3.71,1.91,.06,.02,.13,.05,.19,.08,.59,.25,1.19,.5,1.8,.73,.07,.02,.14,.05,.21,.08,.65,.23,1.3,.46,1.97,.66,.02,.01,.04,.02,.07,.03,2.1,.64,4.31,1.13,6.61,1.47,.15,.02,.3,.04,.45,.06,.59,.08,1.19,.15,1.79,.21,.21,.02,.41,.04,.62,.06,.58,.05,1.15,.09,1.74,.12,.21,.01,.41,.03,.62,.04,.78,.03,1.57,.05,2.37,.05,.35,0,.7,0,1.05,0,20.16-.36,29.1-11.17,37.75-21.63,2.6-3.15,5.12-6.19,7.9-8.94,1.66-1.64,3.42-3.18,5.36-4.57,.01-.01,.03-.02,.05-.03,.28-.2,.55-.41,.82-.61,.16-.13,.32-.25,.48-.38,.09-.07,.19-.15,.28-.22,1.98-1.58,3.68-3.25,5.04-4.98v3.86c.06,4.55-3.28,9.59-9.15,13.81Z"/><path class="cls-1" d="M95.75,38.2c.05,4.55-3.29,9.59-9.16,13.81-5.61,4.02-9.9,9.22-14.06,14.24-8.4,10.17-16.34,19.77-34.55,20.1h-.97c-11.15,0-19.3-3.41-24.69-8.39-5.38-4.98-8-11.54-8.07-17.86v-.2c.79,1.26,1.67,2.48,2.66,3.63h0c.42,.5,.85,.98,1.3,1.44,.06,.07,.12,.13,.18,.19,.34,.34,.69,.69,1.05,1.02,.05,.05,.11,.09,.17,.14,.19,.18,.39,.35,.59,.52,.29,.25,.57,.5,.87,.73,.21,.17,.42,.34,.63,.5,.32,.24,.65,.49,.99,.72,.18,.13,.36,.26,.55,.39,.46,.31,.93,.61,1.4,.89,.07,.05,.14,.09,.22,.14,1.18,.7,2.42,1.34,3.71,1.91,.06,.02,.13,.05,.19,.08,.59,.25,1.19,.5,1.8,.73,.07,.02,.14,.05,.21,.08,.65,.23,1.3,.46,1.97,.66,.02,.01,.04,.02,.07,.03,2.1,.64,4.31,1.13,6.61,1.47,.15,.02,.3,.04,.45,.06,.59,.08,1.19,.15,1.79,.21,.21,.02,.41,.04,.62,.06,.58,.05,1.15,.09,1.74,.12,.21,.01,.41,.03,.62,.04,.78,.03,1.57,.05,2.37,.05,.35,0,.7,0,1.05,0,20.16-.36,29.1-11.17,37.75-21.63,2.6-3.15,5.12-6.19,7.9-8.94,1.66-1.64,3.42-3.18,5.36-4.57,.01-.01,.03-.02,.05-.03,.28-.2,.55-.41,.82-.61,.16-.13,.32-.25,.48-.38,.09-.07,.19-.15,.28-.22,1.98-1.58,3.68-3.25,5.04-4.98v3.86Z"/><path class="cls-2" d="M95.36,20.86c-1.46-4.52-6.73-7.21-14.11-7.21h-.52c-11.01,.19-18.53,2.81-25.8,5.34-4.9,1.71-9.96,3.48-15.9,4.4-2.34,.37-4.76,.66-7.11,.94-11.94,1.42-23.22,2.77-26.62,13.66-.83,2.66-1.16,5.44-1.01,8.2v.08c.06,.91,.16,1.81,.32,2.7,.01,.08,.02,.15,.04,.22,.07,.37,.14,.74,.23,1.11,.02,.09,.04,.17,.06,.26,.09,.36,.18,.71,.28,1.06,.03,.09,.05,.18,.08,.26,.11,.37,.23,.73,.36,1.09,.02,.07,.04,.13,.06,.2,.15,.41,.31,.81,.48,1.21,.01,.02,.01,.04,.02,.05,.55,1.29,1.22,2.54,1.99,3.74,.03,.05,.07,.1,.1,.14,.22,.35,.46,.68,.7,1.02,.04,.05,.08,.1,.12,.15,.32,.44,.65,.86,1,1.27,.02,.03,.05,.06,.07,.09,.77,.9,1.6,1.75,2.49,2.54,.01,.01,.02,.02,.03,.03,4.52,4.01,10.54,6.61,17.62,7.6h.02c.65,.09,1.32,.16,2,.23,.07,0,.14,.01,.22,.02,.61,.06,1.24,.09,1.87,.13,.11,0,.23,0,.34,.02,.73,.03,1.47,.04,2.22,.04h.97c18.21-.33,26.15-9.93,34.55-20.1,4.16-5.02,8.45-10.22,14.06-14.24,.4-.29,.79-.59,1.18-.89,.11-.09,.21-.18,.32-.26,.27-.22,.54-.44,.8-.67,.11-.09,.22-.18,.32-.28,.27-.23,.52-.46,.77-.7,.08-.08,.16-.15,.24-.23,.31-.3,.6-.6,.89-.9,.01-.01,.03-.03,.04-.04,.62-.67,1.18-1.35,1.68-2.03,.04-.04,.07-.09,.1-.14,.21-.28,.4-.57,.58-.85,.05-.07,.09-.14,.14-.21,.16-.27,.32-.53,.47-.8,.04-.08,.08-.15,.12-.22,.15-.29,.29-.57,.42-.86,.02-.05,.05-.1,.07-.14,.14-.33,.27-.65,.38-.97,.04-.12,.08-.24,.12-.36,.06-.19,.12-.38,.17-.57,.04-.17,.07-.33,.11-.49,.03-.15,.06-.3,.09-.44,.03-.18,.05-.35,.07-.53,.02-.13,.03-.26,.04-.4,0-.17,.03-.34,.03-.52,.02-.94-.1-1.87-.38-2.75Zm-55.68,44.63c-.41,.64-1.1,.99-1.8,.99-.39,0-.79-.11-1.14-.33L9.09,48.6c-.99-.63-1.28-1.94-.65-2.93s1.94-1.29,2.93-.66l27.65,17.55c.99,.63,1.29,1.94,.66,2.93Zm20.47-6.56c-.41,.64-1.1,.99-1.8,.99-.39,0-.78-.11-1.14-.33L16.54,33.77c-1-.63-1.29-1.94-.66-2.94,.63-.99,1.94-1.28,2.94-.65l40.67,25.81c.99,.63,1.29,1.95,.66,2.94Zm11.17-12.47c-.41,.64-1.1,.99-1.8,.99-.39,0-.79-.11-1.14-.34l-27.4-17.38c-.99-.63-1.29-1.95-.66-2.94s1.95-1.28,2.94-.66l27.4,17.39c.99,.63,1.28,1.95,.66,2.94Zm11.43-12.3c-.41,.64-1.1,.99-1.8,.99-.39,0-.78-.11-1.14-.34l-18.49-11.73c-.99-.63-1.28-1.94-.65-2.94,.63-.99,1.94-1.28,2.93-.65l18.49,11.73c.99,.63,1.29,1.95,.66,2.94Z"/><path d="M39.68,65.49c-.41,.64-1.1,.99-1.8,.99-.39,0-.79-.11-1.14-.33L9.09,48.6c-.99-.63-1.28-1.94-.65-2.93s1.94-1.29,2.93-.66l27.65,17.55c.99,.63,1.29,1.94,.66,2.93Z"/><path d="M60.15,58.93c-.41,.64-1.1,.99-1.8,.99-.39,0-.78-.11-1.14-.33L16.54,33.77c-1-.63-1.29-1.94-.66-2.94,.63-.99,1.94-1.28,2.94-.65l40.67,25.81c.99,.63,1.29,1.95,.66,2.94Z"/><path d="M71.32,46.46c-.41,.64-1.1,.99-1.8,.99-.39,0-.79-.11-1.14-.34l-27.4-17.38c-.99-.63-1.29-1.95-.66-2.94s1.95-1.28,2.94-.66l27.4,17.39c.99,.63,1.28,1.95,.66,2.94Z"/><path d="M82.75,34.16c-.41,.64-1.1,.99-1.8,.99-.39,0-.78-.11-1.14-.34l-18.49-11.73c-.99-.63-1.28-1.94-.65-2.94,.63-.99,1.94-1.28,2.93-.65l18.49,11.73c.99,.63,1.29,1.95,.66,2.94Z"/></svg>