<?xml version="1.0" encoding="UTF-8"?><svg id="Ebene_1" xmlns="http://www.w3.org/2000/svg" viewBox="0 0 100 100"><defs><style>.cls-1{fill:#ffee15;}.cls-2{fill:#e6e6e6;}.cls-3{fill:#ccc;}</style></defs><path d="M83.35,75.08c-.08-.08-.16-.17-.24-.26,4.47-3.47,8.31-9.34,8.31-13.05,0-1.76-2.1-6.93-4-9.73,7.09-5.74,12.58-15.12,12.58-26.99,0-3.93-.51-7.84-1.51-11.63-.3-2.75-4.29-3.92-7.31-4.57-3.86-.82-8.94-1.27-14.32-1.27s-10.44,.45-14.29,1.27c-3.04,.65-7.04,1.82-7.33,4.57-.98,3.7-1.47,7.61-1.47,11.63,0,4.52,.64,8.87,1.83,12.83-2.26,.27-5.09,.79-7.43,1.37-.21-.33-.45-.71-.69-1.09-1.87-2.98-3.19-4.99-4.41-5.83-3.87-2.63-11.33-3.09-17.53,1.23-3.53,2.44-6.62,6.44-9.34,9.97-.89,1.15-1.74,2.24-2.56,3.24C4.59,50.18,0,55.22,0,61.77c0,5.1,3.76,9.76,10.86,13.49,10.33,9.67,32.73,12.11,50.05,10.35,1.68,4,7.98,6.81,15.95,6.81,9.36,0,16.41-3.87,16.41-9,0-3.79-3.78-6.95-9.92-8.34Zm-1.99-3.99c-.24-1.02-.38-2.15-.4-3.34-.08-4.71,1.62-9.5,4.29-12.16,1.25,1.9,2.17,4.92,2.17,6.18,0,1.9-2.62,6.36-6.06,9.32ZM27.82,36.84c2.55-1.77,5.43-2.53,7.96-2.53,2,0,3.79,.48,5.03,1.31,.65,.49,2.43,3.31,3.28,4.67,.05,.07,.09,.14,.14,.21-.5,.19-.98,.39-1.46,.59-.04-.13-.08-.26-.11-.37-.68-2.2-1.11-3.48-2.11-4.14-3.3-2.24-7.67-1.9-11.7,.91-3.17,2.19-6.42,5.19-9.13,8.02,2.56-3.31,5.21-6.67,8.1-8.67Zm11.27,5.86c-.2,.09-.39,.18-.58,.27-.19-.63-.68-1.15-1.35-1.34-1.26-.37-2.58-.48-4.08-.35-1.71,.18-3.4,.88-5.06,1.88,1.03-.86,2.08-1.67,3.11-2.38,1.57-1.09,3.15-1.65,4.58-1.65,.87,0,1.68,.2,2.38,.62,.22,.45,.54,1.5,.75,2.15,.08,.28,.17,.55,.25,.8ZM8.95,60.29c.05-.09,.09-.19,.12-.29,.68-1.87,2.69-4.82,4.78-7.39-2.54,4-3.37,7.9-2.47,11.66l.07,.38c.1,.59,.46,1.07,.94,1.36,.4,.24,.89,.34,1.38,.25,1.09-.2,1.81-1.24,1.61-2.33l-.08-.43s-.01-.08-.02-.12c-.81-3.33,.33-6.86,3.51-10.78,.61-.76,1.33-1.61,2.12-2.49,.05,.42,.23,.83,.54,1.16,.77,.79,2.03,.82,2.83,.06,2.96-2.83,6.38-5.77,9.19-6.07,.23-.02,.46-.03,.67-.04-4.26,2.41-7.58,4.97-9.81,7.58-1.6,1.88-2.62,3.69-3.12,5.51-.63,2.12-.56,4.31,.22,6.35,.67,1.74,1.89,3.38,3.62,4.88,.84,.72,2.1,.64,2.82-.2,.73-.83,.64-2.1-.2-2.82-1.23-1.07-2.08-2.19-2.51-3.3-.46-1.22-.5-2.49-.11-3.78,0-.02,.01-.05,.02-.07,.33-1.24,1.09-2.55,2.3-3.98,2.83-3.31,8.02-6.7,14.86-9.73,.17-.04,.33-.11,.48-.21,1.18-.51,2.4-1.01,3.67-1.5,2.17-.84,7.55-1.93,10.6-2.2,.02,.05,.04,.1,.06,.15-3.71,.39-8.61,1.49-10.89,2.34-8.02,3.08-13.84,6.84-17.79,11.49-1.25,1.4-2.03,2.74-2.38,4.1-.38,1.18-.39,2.43-.04,3.62,.32,1.05,1.44,1.66,2.49,1.34,.22-.07,.42-.17,.59-.29-.12,.34-.22,.67-.29,1-.24,1.19,.07,2.35,.86,3.28,2.4,2.79,9.49,3.67,23.7,2.95,.56-.03,.97-.05,1.17-.05,5.05-.08,9.57-3.86,11.04-5.88,.02,.78,.49,1.5,1.25,1.8,1.03,.41,2.19-.09,2.6-1.11,.3-.75,.49-1.55,.56-2.35,.75-3.05,.12-6.11-1.78-8.64-.13-.17-.26-.34-.4-.5,.14,.08,.27,.16,.41,.23,2.88,2.57,4.75,7.59,4.66,12.52-.01,.66-.06,1.29-.14,1.89-7.73,2.87-13.06,4.14-26.93,4.14-7.33,0-16.98-1.57-24.58-4-3.92-1.25-6.77-2.55-8.76-3.76-2.72-1.67-3.83-3.19-3.83-4.25,0-.52,.13-1.02,.39-1.48Zm48.41-10.08c-1.17-.09-2.6,.25-4.1,.8-2.97,1.1-6.21,3.06-8.29,4.44-3.12,2.05-8.41,5.88-8.85,8.41-.14,.8,.12,1.58,.72,2.15,.52,.49,1.28,.96,3.68,1.12,1.4,.09,3.37,.08,6.18-.1,3.69-.23,7.79-.71,9-.99,1.07-.24,1.75-1.31,1.5-2.39-.19-.87-.92-1.47-1.76-1.55,.19-.44,.23-.95,.07-1.44-.3-.91-1.19-1.46-2.09-1.36,1.4-.75,2.73-1.31,3.54-1.39,.64,.07,1.22,.21,1.72,.42,1.48,.64,2.35,1.68,2.83,2.45,.52,.83,.8,1.78,.76,2.54,0,.05-.01,.11-.02,.16-.62,.86-4.09,4.14-7.86,4.2-.23,.01-.68,.03-1.3,.06-5.58,.28-9.65,.27-12.61,.11-6.14-.34-7.53-1.32-7.81-1.62,.54-2.25,4.19-6.59,11.03-10.93,3.17-2.01,6.38-3.62,9.4-4.73,2.88-1.06,5.59-1.68,7.9-1.76,.81,1.08,1.68,2.07,2.61,2.98-1.89-.96-4.05-1.52-6.25-1.58Zm7.57,7.69c.7,.93,1.42,2.37,1.27,4.24-.17-1.18-.62-2.39-1.3-3.47-1.01-1.64-2.44-2.94-4.17-3.79,1.71,.63,3.2,1.68,4.2,3.02Zm-19.78,4.52c.15,.27,.33,.49,.56,.67-1.62,.09-3.15,.13-4.34,.09,.97-.89,2.35-1.97,3.91-3.08-.55,.78-.49,1.68-.13,2.32Zm-15.3,.32c0-.15-.03-.29-.08-.44-.12-.42-.11-.86,.03-1.28,.01-.04,.03-.09,.04-.14,.18-.74,.69-1.58,1.52-2.5,.01-.01,.02-.03,.03-.04,3.46-4.08,8.9-7.57,16.18-10.36,.96-.36,2.45-.76,4.08-1.12-3.28,1.21-6.73,2.93-10.09,5.07-4.49,2.84-9.44,6.92-11.71,10.81Zm30.91,18.86c-19.67,2.1-39.41-1.8-47.34-9.42-.14-.14-.3-.25-.47-.34-5.77-2.98-8.95-6.55-8.95-10.07,0-2.53,1.07-4.79,3.18-6.76-.77,1.23-1.41,2.43-1.81,3.5-.53,1.02-.8,2.11-.8,3.26,0,5.71,8.35,9.58,15.36,11.82,8.08,2.59,17.97,4.19,25.8,4.19,12.57,0,18.47-1,25.13-3.25-.15,.2-.31,.38-.48,.55-5.13,1.16-8.61,3.56-9.62,6.52Zm16.1,6.82c-7.55,0-12.38-2.94-12.4-4.98v-.04c0-1.48,2.56-3.56,7.25-4.52,.32-.06,.62-.2,.87-.41,1.81-1.47,3.1-3.81,3.75-6.65,.08-.2,.12-.42,.13-.63,.2-1.06,.31-2.19,.34-3.36v-.41c.01-5.87-2.24-11.68-5.8-14.99-.16-.21-.37-.39-.62-.52-2.49-1.37-4.72-3.46-6.58-6.08-.06-.11-.13-.22-.21-.31-.7-1.02-1.34-2.11-1.93-3.26-2.47-4.87-3.89-10.88-3.89-17.21,0-3.74,.46-7.37,1.38-10.78,0-.02,0-.04,.02-.06,.14-.11,.34-.23,.6-.35,.27,2.22,3.19,3.05,6.05,3.57,2.96,.54,6.88,.84,11.04,.84s8.09-.3,11.05-.84c2.86-.52,5.78-1.35,6.05-3.58,.26,.13,.46,.24,.6,.35,0,.03,.01,.05,.01,.07,.95,3.51,1.43,7.14,1.43,10.78,0,6.13-1.34,11.97-3.67,16.76-1.94,3.98-4.56,7.23-7.66,9.32-.14,.06-.27,.15-.38,.24-.3,.19-.6,.37-.91,.54-.24,.13-.45,.31-.62,.52-3.55,3.31-5.8,9.12-5.8,14.99v.4c.05,2.68,.57,5.1,1.5,7.08,.05,.15,.12,.29,.2,.43,.02,.04,.05,.07,.07,.11,.65,1.22,1.46,2.24,2.41,3.03,.25,.21,.55,.35,.87,.41,4.72,.97,7.26,3.06,7.26,4.54,0,2.04-4.83,5-12.41,5Z"/><path class="cls-3" d="M87.42,61.77c0,1.9-2.62,6.36-6.06,9.32-.24-1.02-.38-2.15-.4-3.34-.08-4.71,1.62-9.5,4.29-12.16,1.25,1.9,2.17,4.92,2.17,6.18Z"/><path class="cls-1" d="M45.71,63.09c-1.62,.09-3.15,.13-4.34,.09,.97-.89,2.35-1.97,3.91-3.08-.55,.78-.49,1.68-.13,2.32,.15,.27,.33,.49,.56,.67Z"/><path class="cls-2" d="M76.96,67.42v.4c.05,2.68,.57,5.1,1.5,7.08,.05,.15,.12,.29,.2,.43,.02,.04,.05,.07,.07,.11,.65,1.22,1.46,2.24,2.41,3.03,.25,.21,.55,.35,.87,.41,4.72,.97,7.26,3.06,7.26,4.54,0,2.04-4.83,5-12.41,5s-12.38-2.94-12.4-4.98v-.04c0-1.48,2.56-3.56,7.25-4.52,.32-.06,.62-.2,.87-.41,1.81-1.47,3.1-3.81,3.75-6.65,.08-.2,.12-.42,.13-.63,.2-1.06,.31-2.19,.34-3.36v-.41c.01-5.87-2.24-11.68-5.8-14.99-.16-.21-.37-.39-.62-.52-2.49-1.37-4.72-3.46-6.58-6.08-.06-.11-.13-.22-.21-.31-.7-1.02-1.34-2.11-1.93-3.26-2.47-4.87-3.89-10.88-3.89-17.21,0-3.74,.46-7.37,1.38-10.78,0-.02,0-.04,.02-.06,.14-.11,.34-.23,.6-.35,.27,2.22,3.19,3.05,6.05,3.57,2.96,.54,6.88,.84,11.04,.84s8.09-.3,11.05-.84c2.86-.52,5.78-1.35,6.05-3.58,.26,.13,.46,.24,.6,.35,0,.03,.01,.05,.01,.07,.95,3.51,1.43,7.14,1.43,10.78,0,6.13-1.34,11.97-3.67,16.76-1.94,3.98-4.56,7.23-7.66,9.32-.14,.06-.27,.15-.38,.24-.3,.19-.6,.37-.91,.54-.24,.13-.45,.31-.62,.52-3.55,3.31-5.8,9.12-5.8,14.99Z"/><path class="cls-3" d="M70.86,74.53c-.15,.2-.31,.38-.48,.55-5.13,1.16-8.61,3.56-9.62,6.52-19.67,2.1-39.41-1.8-47.34-9.42-.14-.14-.3-.25-.47-.34-5.77-2.98-8.95-6.55-8.95-10.07,0-2.53,1.07-4.79,3.18-6.76-.77,1.23-1.41,2.43-1.81,3.5-.53,1.02-.8,2.11-.8,3.26,0,5.71,8.35,9.58,15.36,11.82,8.08,2.59,17.97,4.19,25.8,4.19,12.57,0,18.47-1,25.13-3.25Z"/><path class="cls-1" d="M44.23,40.5c-.5,.19-.98,.39-1.46,.59-.04-.13-.08-.26-.11-.37-.68-2.2-1.11-3.48-2.11-4.14-3.3-2.24-7.67-1.9-11.7,.91-3.17,2.19-6.42,5.19-9.13,8.02,2.56-3.31,5.21-6.67,8.1-8.67,2.55-1.77,5.43-2.53,7.96-2.53,2,0,3.79,.48,5.03,1.31,.65,.49,2.43,3.31,3.28,4.67,.05,.07,.09,.14,.14,.21Z"/><path class="cls-1" d="M39.09,42.7c-.2,.09-.39,.18-.58,.27-.19-.63-.68-1.15-1.35-1.34-1.26-.37-2.58-.48-4.08-.35-1.71,.18-3.4,.88-5.06,1.88,1.03-.86,2.08-1.67,3.11-2.38,1.57-1.09,3.15-1.65,4.58-1.65,.87,0,1.68,.2,2.38,.62,.22,.45,.54,1.5,.75,2.15,.08,.28,.17,.55,.25,.8Z"/><path class="cls-1" d="M51.65,46.86c-3.28,1.21-6.73,2.93-10.09,5.07-4.49,2.84-9.44,6.92-11.71,10.81,0-.15-.03-.29-.08-.44-.12-.42-.11-.86,.03-1.28,.01-.04,.03-.09,.04-.14,.18-.74,.69-1.58,1.52-2.5,.01-.01,.02-.03,.03-.04,3.46-4.08,8.9-7.57,16.18-10.36,.96-.36,2.45-.76,4.08-1.12Z"/><path class="cls-1" d="M61.51,60.78c.52,.83,.8,1.78,.76,2.54,0,.05-.01,.11-.02,.16-.62,.86-4.09,4.14-7.86,4.2-.23,.01-.68,.03-1.3,.06-5.58,.28-9.65,.27-12.61,.11-6.14-.34-7.53-1.32-7.81-1.62,.54-2.25,4.19-6.59,11.03-10.93,3.17-2.01,6.38-3.62,9.4-4.73,2.88-1.06,5.59-1.68,7.9-1.76,.81,1.08,1.68,2.07,2.61,2.98-1.89-.96-4.05-1.52-6.25-1.58-1.17-.09-2.6,.25-4.1,.8-2.97,1.1-6.21,3.06-8.29,4.44-3.12,2.05-8.41,5.88-8.85,8.41-.14,.8,.12,1.58,.72,2.15,.52,.49,1.28,.96,3.68,1.12,1.4,.09,3.37,.08,6.18-.1,3.69-.23,7.79-.71,9-.99,1.07-.24,1.75-1.31,1.5-2.39-.19-.87-.92-1.47-1.76-1.55,.19-.44,.23-.95,.07-1.44-.3-.91-1.19-1.46-2.09-1.36,1.4-.75,2.73-1.31,3.54-1.39,.64,.07,1.22,.21,1.72,.42,1.48,.64,2.35,1.68,2.83,2.45Z"/><path class="cls-1" d="M72.8,67.75c-.01,.66-.06,1.29-.14,1.89-7.73,2.87-13.06,4.14-26.93,4.14-7.33,0-16.98-1.57-24.58-4-3.92-1.25-6.77-2.55-8.76-3.76-2.72-1.67-3.83-3.19-3.83-4.25,0-.52,.13-1.02,.39-1.48,.05-.09,.09-.19,.12-.29,.68-1.87,2.69-4.82,4.78-7.39-2.54,4-3.37,7.9-2.47,11.66l.07,.38c.1,.59,.46,1.07,.94,1.36,.4,.24,.89,.34,1.38,.25,1.09-.2,1.81-1.24,1.61-2.33l-.08-.43s-.01-.08-.02-.12c-.81-3.33,.33-6.86,3.51-10.78,.61-.76,1.33-1.61,2.12-2.49,.05,.42,.23,.83,.54,1.16,.77,.79,2.03,.82,2.83,.06,2.96-2.83,6.38-5.77,9.19-6.07,.23-.02,.46-.03,.67-.04-4.26,2.41-7.58,4.97-9.81,7.58-1.6,1.88-2.62,3.69-3.12,5.51-.63,2.12-.56,4.31,.22,6.35,.67,1.74,1.89,3.38,3.62,4.88,.84,.72,2.1,.64,2.82-.2,.73-.83,.64-2.1-.2-2.82-1.23-1.07-2.08-2.19-2.51-3.3-.46-1.22-.5-2.49-.11-3.78,0-.02,.01-.05,.02-.07,.33-1.24,1.09-2.55,2.3-3.98,2.83-3.31,8.02-6.7,14.86-9.73,.17-.04,.33-.11,.48-.21,1.18-.51,2.4-1.01,3.67-1.5,2.17-.84,7.55-1.93,10.6-2.2,.02,.05,.04,.1,.06,.15-3.71,.39-8.61,1.49-10.89,2.34-8.02,3.08-13.84,6.84-17.79,11.49-1.25,1.4-2.03,2.74-2.38,4.1-.38,1.18-.39,2.43-.04,3.62,.32,1.05,1.44,1.66,2.49,1.34,.22-.07,.42-.17,.59-.29-.12,.34-.22,.67-.29,1-.24,1.19,.07,2.35,.86,3.28,2.4,2.79,9.49,3.67,23.7,2.95,.56-.03,.97-.05,1.17-.05,5.05-.08,9.57-3.86,11.04-5.88,.02,.78,.49,1.5,1.25,1.8,1.03,.41,2.19-.09,2.6-1.11,.3-.75,.49-1.55,.56-2.35,.75-3.05,.12-6.11-1.78-8.64-.13-.17-.26-.34-.4-.5,.14,.08,.27,.16,.41,.23,2.88,2.57,4.75,7.59,4.66,12.52Z"/><path class="cls-1" d="M64.9,58.67c.68,1.08,1.12,2.29,1.3,3.47,.15-1.87-.57-3.31-1.27-4.24-1.01-1.34-2.49-2.39-4.21-3.02,1.73,.85,3.16,2.15,4.18,3.8Z"/></svg>