<?xml version="1.0" encoding="UTF-8"?><svg id="Ebene_1" xmlns="http://www.w3.org/2000/svg" viewBox="0 0 100 100"><defs><style>.cls-1{fill:#ccc;}.cls-2{fill:#b3b3b3;}</style></defs><path d="M99.48,38.23c-1.11-2.74-3.72-4.5-6.66-4.5-.93,0-1.83,.17-2.7,.52l-1.42,.58v-1.95c2.79-.99,4.79-3.65,4.79-6.78,0-3.97-3.22-7.2-7.18-7.2H13.69c-3.96,0-7.18,3.23-7.18,7.2,0,3.13,2,5.79,4.78,6.78v1.95l-1.41-.58c-.87-.35-1.77-.52-2.7-.52-2.94,0-5.55,1.76-6.66,4.5-1.48,3.68,.3,7.88,3.97,9.37l6.8,2.76v19.34c0,6.28,5.11,11.4,11.38,11.4h54.66c6.27,0,11.38-5.12,11.38-11.4v-19.33s6.8-2.77,6.8-2.77c3.67-1.49,5.45-5.69,3.97-9.37ZM11.29,45.19l-5.01-2.04c-1.22-.49-1.81-1.9-1.32-3.12,.37-.91,1.24-1.5,2.22-1.5,.31,0,.61,.06,.9,.17l3.21,1.31v5.18Zm72.63,24.51c0,3.64-2.96,6.6-6.59,6.6H22.67c-3.63,0-6.59-2.96-6.59-6.6V33.3H83.92v36.4Zm2.39-41.2H13.69c-1.32,0-2.4-1.08-2.4-2.4s1.08-2.4,2.4-2.4H86.31c1.32,0,2.4,1.08,2.4,2.4s-1.08,2.4-2.4,2.4Zm7.41,14.65l-5.02,2.04v-5.18l3.22-1.31c.29-.11,.59-.17,.9-.17,.98,0,1.85,.59,2.22,1.5,.49,1.22-.1,2.63-1.32,3.12Z"/><path class="cls-2" d="M88.71,26.1c0,1.32-1.08,2.4-2.4,2.4H13.69c-1.32,0-2.4-1.08-2.4-2.4s1.08-2.4,2.4-2.4H86.31c1.32,0,2.4,1.08,2.4,2.4Z"/><path class="cls-1" d="M83.92,33.3v36.4c0,3.64-2.96,6.6-6.59,6.6H22.67c-3.63,0-6.59-2.96-6.59-6.6V33.3H83.92Z"/></svg>