<?xml version="1.0" encoding="UTF-8"?><svg id="Ebene_1" xmlns="http://www.w3.org/2000/svg" viewBox="0 0 100 100"><defs><style>.cls-1{fill:lime;}.cls-2{fill:red;}.cls-3{fill:#ff0;}</style></defs><path d="M28.38,67.07s-.05-.05-.07-.07c-.02-.02-.03-.03-.05-.04-.35-.36-.85-.6-1.5-.6H2.2c-1.19,0-2.2,1.01-2.2,2.2v13.74c0,1.19,1.01,2.2,2.2,2.2H26.76c1.19,0,2.21-1.01,2.21-2.2v-13.74c0-.64-.24-1.14-.59-1.49Zm-3.82,13.02H4.41v-9.32H24.56v9.32Z"/><rect class="cls-1" x="4.41" y="70.77" width="20.15" height="9.32"/><path d="M63.89,66.86s-.04-.05-.07-.07c-.01-.02-.02-.03-.04-.04-.35-.36-.85-.6-1.5-.6h-24.56c-1.19,0-2.2,1.01-2.2,2.2v13.74c0,1.19,1.01,2.2,2.2,2.2h24.56c1.19,0,2.2-1.01,2.2-2.2v-13.74c0-.64-.23-1.14-.59-1.49Zm-3.82,13.02h-20.15v-9.32h20.15v9.32Z"/><rect class="cls-3" x="39.92" y="70.57" width="20.15" height="9.32"/><path d="M63.89,41.65s-.04-.05-.07-.08c-.01-.01-.03-.02-.04-.04-.35-.36-.85-.59-1.5-.59h-24.56c-1.19,0-2.2,1.01-2.2,2.2v13.73c0,1.19,1.01,2.21,2.2,2.21h24.56c1.19,0,2.2-1.01,2.2-2.21v-13.73c0-.65-.23-1.14-.59-1.49Zm-3.82,13.02h-20.15v-9.33h20.15v9.33Z"/><rect class="cls-3" x="39.92" y="45.34" width="20.15" height="9.33"/><path d="M99.41,66.67s-.05-.05-.07-.07c-.02-.01-.03-.03-.04-.04-.36-.36-.85-.6-1.5-.6h-24.56c-1.19,0-2.21,1.01-2.21,2.2v13.74c0,1.19,1.01,2.2,2.21,2.2h24.56c1.19,0,2.2-1.01,2.2-2.2v-13.74c0-.64-.24-1.13-.59-1.49Zm-3.82,13.02h-20.15v-9.32h20.15v9.32Z"/><rect class="cls-2" x="75.44" y="70.36" width="20.15" height="9.32"/><path d="M99.41,41.45s-.05-.05-.07-.08c-.02-.01-.03-.02-.04-.04-.36-.35-.85-.59-1.5-.59h-24.56c-1.19,0-2.21,1.01-2.21,2.2v13.73c0,1.19,1.01,2.21,2.21,2.21h24.56c1.19,0,2.2-1.01,2.2-2.21v-13.73c0-.65-.24-1.14-.59-1.49Zm-3.82,13.02h-20.15v-9.33h20.15v9.33Z"/><rect class="cls-2" x="75.44" y="45.14" width="20.15" height="9.33"/><path d="M99.41,16.22s-.05-.04-.07-.07l-.04-.04c-.36-.36-.85-.6-1.5-.6h-24.56c-1.19,0-2.21,1.01-2.21,2.21v13.73c0,1.19,1.01,2.2,2.21,2.2h24.56c1.19,0,2.2-1.01,2.2-2.2v-13.73c0-.65-.24-1.14-.59-1.5Zm-3.82,13.03h-20.15v-9.33h20.15v9.33Z"/><rect class="cls-2" x="75.44" y="19.92" width="20.15" height="9.33"/></svg>