<?xml version="1.0" encoding="UTF-8"?><svg id="Ebene_1" xmlns="http://www.w3.org/2000/svg" viewBox="0 0 100 100"><defs><style>.cls-1{fill:#fff;}.cls-2{fill:#c1272d;}</style></defs><g><path d="M60.09,77.96c-.16-2.98-1.67-5.66-3.92-7.42-1.11-.9-2.42-1.56-3.88-1.9,0-16.44,0-19.86,0-36.29,0-2.94-4.57-2.95-4.57,0,0,16.44,0,19.86,0,36.3,0,0,0,0,0,.01h-.02c-.22,.05-.42,.1-.63,.17-.1,.03-.2,.07-.3,.1-.21,.08-.42,.15-.62,.24-.1,.04-.19,.08-.28,.13-.2,.09-.4,.18-.6,.29-.09,.05-.17,.1-.26,.15-.19,.12-.38,.23-.57,.36-.08,.05-.16,.11-.24,.17-.18,.13-.36,.26-.54,.4-.05,.05-.1,.09-.15,.14-.02,.02-.05,.04-.07,.06-.01,0-.01,.01-.02,.01-.08,.07-.16,.14-.23,.22-.08,.07-.16,.14-.24,.22-.08,.08-.16,.17-.25,.25-.13,.15-.27,.29-.4,.45-.09,.1-.17,.21-.25,.32-.11,.14-.22,.28-.32,.43-.1,.13-.18,.27-.27,.41-.08,.13-.16,.25-.24,.38-.09,.17-.18,.34-.27,.52-.05,.1-.11,.21-.15,.32-.1,.2-.18,.42-.26,.63-.03,.08-.06,.16-.09,.23-.09,.25-.16,.51-.23,.76,0,.03-.01,.05-.02,.07,0,.03-.01,.05-.01,.08-.08,.28-.13,.58-.18,.87v.05c-.07,.46-.12,.93-.12,1.4,0,.54,.06,1.07,.14,1.59,.01,.06,.02,.12,.03,.18,.04,.21,.09,.42,.14,.62,.04,.15,.07,.3,.11,.44,.03,.1,.07,.2,.11,.3,.07,.23,.15,.45,.24,.67,0,.01,0,.02,0,.03,.12,.28,.25,.56,.4,.83h0c.14,.28,.29,.53,.46,.78,1.72,2.64,4.63,4.46,7.92,4.64,.17,.03,.36,.05,.56,.04h.14c.14,0,.27-.01,.41-.04,2.57-.13,4.79-1.21,6.45-2.88,1.79-1.68,2.95-3.98,3.09-6.67,.03-.17,.04-.34,.03-.53,.01-.19,0-.37-.03-.53Zm-6.24,4.36s-.02,0-.03,.02c-.24,.22-.5,.41-.78,.59-.07,.04-.14,.07-.21,.11-.23,.14-.48,.26-.73,.36-.07,.02-.13,.05-.19,.07-.65,.23-1.34,.36-2.03,.36-.08,0-.15,0-.23,0-.22,0-.44-.02-.65-.05-.49-.07-.98-.18-1.43-.37-3.31-1.72-3.81-6.44-1.47-8.91,2.5-2.24,7.12-1.7,8.82,1.58,.83,2.03,.47,4.58-1.07,6.25Z"/><path d="M38.4,5.19c-.38,.43-.74,.89-1.07,1.37,.27-.4,.57-.76,.88-1.13,.07-.08,.12-.17,.19-.24Z"/><path d="M66.1,63.17c-.11-.17-.21-.34-.28-.52-.01-.02-.02-.03-.03-.05-.28-.62-.42-1.29-.48-1.99v-.03c-.11-1.37,.07-2.81,.07-4.07v-20.59c0-1.26-1.02-2.29-2.28-2.29s-2.29,1.03-2.29,2.29v22.26c0,.37-.01,.76-.02,1.15-.03,2.24,.05,4.4,1.49,6.32,.02,.04,.05,.06,.08,.1,.07,.12,.17,.24,.27,.36,.31,.34,.6,.69,.87,1.04,.09,.11,.17,.22,.25,.34,.27,.35,.51,.72,.74,1.09,.15,.24,.29,.48,.43,.72,.2,.35,.39,.72,.56,1.09-.04-.09-.08-.18-.12-.27,.05,.1,.1,.21,.15,.31-.01-.01-.02-.03-.03-.04,.03,.05,.05,.11,.08,.17,.01,.01,.01,.02,.01,.03,1.6,3.49,2.01,7.44,1.13,11.25-.01,.05-.02,.09-.03,.14-.07,.29-.15,.59-.23,.87-.02,.05-.04,.11-.05,.17-.02,.06-.03,.11-.05,.17,0,.01-.01,.02-.01,.03-.05,.15-.11,.3-.16,.45-.03,.09-.06,.18-.09,.27-.06,.15-.11,.31-.17,.47t0,.02c-.06,.16-.14,.32-.2,.48-.11,.24-.21,.47-.32,.7-1.14,2.4-2.81,4.54-4.9,6.21-.24,.19-.48,.37-.73,.55-.12,.08-.24,.17-.36,.24-.29,.2-.58,.39-.88,.56-.07,.04-.14,.08-.21,.12-.37,.21-.76,.41-1.15,.59-.01,.01-.03,.02-.04,.02-1.04,.48-2.12,.85-3.25,1.09-.2,.05-.4,.09-.6,.13-.06,.02-.13,.03-.19,.04-.07,.02-.14,.03-.21,.04-.01,0-.03,0-.04,0-.05,0-.1,.01-.15,.01l-.18,.03c-.25,.04-.5,.07-.75,.09-.02,.01-.04,.01-.06,.01-.08,.01-.17,.02-.25,.03h-.1s-.03,.01-.05,.01c-.39,.02-.77,.04-1.16,.05h-.24c-.38-.01-.77-.02-1.16-.05-.02,0-.03,0-.05-.01-.04,0-.09,0-.13-.01-.07-.01-.15-.01-.22-.02-.02,0-.04,0-.06-.01-.25-.02-.5-.05-.75-.09-.06,0-.12-.01-.18-.03-.2-.03-.4-.06-.59-.1-.2-.03-.4-.07-.6-.13-1.96-.46-3.83-1.28-5.53-2.38-.01,0-.03-.01-.04-.02-.11-.07-.22-.14-.32-.22-2.77-1.9-5.02-4.58-6.33-7.74-.05-.12-.1-.24-.15-.36-1.27-3.28-1.49-6.94-.65-10.35,.46-1.87,1.21-3.63,2.25-5.25,.27-.41,.57-.8,.88-1.18,.78-.95,1.64-1.85,2.22-2.94,.82-1.55,.78-3.44,.74-5.22-.01-.56-.02-1.13-.02-1.7V21.66c0-2.12-.07-4.28,0-6.4,.01-.22,.03-.44,.05-.65,0,0-.01,0,0-.01,.02-.21,.04-.41,.07-.62v-.02c.02-.12,.04-.23,.06-.34,.06-.32,.12-.63,.2-.93,.03-.12,.06-.23,.09-.34,.1-.33,.21-.66,.33-.97,.02-.07,.05-.14,.07-.2,.15-.36,.32-.71,.5-1.04,1.73-3.16,5.85-5.19,9.44-5.51V0c-.57,.05-2.4,.12-2.96,.23-.39,.08-.78,.19-1.16,.29-.15,.04-.31,.07-.46,.12-.46,.14-.92,.31-1.37,.5-.06,.03-.13,.05-.2,.07-.44,.2-.88,.42-1.31,.66-.06,.03-.13,.06-.19,.09-.4,.23-.79,.49-1.17,.75-.08,.06-.17,.11-.26,.17-.34,.25-.67,.53-1,.81-.1,.09-.21,.17-.32,.27-.32,.29-.61,.6-.91,.92-.09,.11-.2,.2-.29,.3h0s-.07,.09-.1,.13c-.03,.04-.06,.08-.09,.12-.3,.36-.6,.73-.88,1.13-.02,.03-.04,.07-.06,.1-.26,.37-.49,.75-.7,1.14-.01,.02-.03,.04-.04,.06-.01,.01-.01,.03-.02,.04-.07,.14-.13,.28-.19,.41-.13,.26-.26,.51-.37,.78-.1,.25-.19,.5-.27,.75-.07,.2-.15,.39-.22,.6-.13,.43-.24,.86-.33,1.3-.01,.03-.02,.07-.03,.11,0,.03,0,.07-.02,.1-.09,.45-.16,.91-.22,1.37-.03,.2-.05,.4-.07,.6-.03,.28-.06,.54-.08,.82v.07c0,.06-.01,.13-.01,.19-.01,.24-.02,.46-.04,.69,0,.15,0,.3-.02,.45v.09c-.01,.47-.02,.93-.02,1.34V58.88c0,.41,.04,.87,.06,1.33v.05c.01,.11,.01,.21,.01,.32v.4c-.01,.2-.03,.39-.07,.58h0c-.07,.36-.22,.71-.41,1.04,0,.02-.01,.03-.03,.05-.46,.77-1.15,1.5-1.65,2.15-1.29,1.7-2.32,3.56-3.08,5.56-.17,.44-.32,.9-.46,1.36-.01,.04-.02,.08-.03,.13-.04,.12-.07,.24-.1,.36-.03,.09-.05,.18-.07,.27-.06,.2-.12,.41-.16,.61-.03,.1-.04,.2-.06,.3-.03,.12-.05,.24-.07,.36-.03,.13-.06,.27-.08,.4-.02,.11-.05,.22-.07,.33-.02,.16-.04,.32-.06,.49,0,.1-.03,.2-.04,.31-.02,.2-.05,.39-.07,.59h0c-.03,.25-.03,.48-.05,.72,0,.08-.01,.14-.01,.22,0,.09-.01,.17-.01,.26-.02,.39-.02,.78-.01,1.17,0,.09,0,.18,.01,.26,.01,.48,.04,.98,.09,1.46,.01,.09,.02,.18,.03,.27,.05,.36,.09,.71,.15,1.07v.02s.01,.05,.02,.08c0,.03,0,.06,.02,.1,.02,.1,.04,.21,.06,.31,.07,.38,.15,.76,.24,1.13t.01,.02c1.34,5.4,4.7,10.22,9.29,13.33,.01,.01,.03,.02,.04,.03,.3,.21,.61,.4,.92,.59,.13,.07,.25,.15,.38,.23,.43,.25,.87,.49,1.32,.71h.01c.09,.05,.18,.09,.27,.13,.03,.01,.07,.02,.1,.04,.08,.05,.18,.08,.26,.12,.2,.09,.39,.18,.6,.27,.14,.06,.29,.11,.43,.16,.08,.03,.15,.06,.23,.09,.04,.01,.07,.02,.11,.04,.07,.03,.15,.06,.23,.09,.09,.03,.18,.07,.27,.1,.19,.06,.38,.12,.58,.17,.12,.03,.24,.08,.35,.11,.12,.04,.25,.08,.37,.11,.36,.1,.72,.18,1.08,.25,.01,0,.02,0,.03,.01,.08,.02,.14,.04,.22,.05,.01,.01,.03,.01,.04,.01,.38,.07,.77,.14,1.17,.19h.02c.37,.05,.75,.09,1.13,.13,.08,0,.15,.01,.22,.01,.05,.01,.09,.02,.14,.02h.06c.17,0,.34,.02,.51,.02,.08,.01,.16,.01,.24,.01,.15,0,.29,.01,.43,.01h.02s.07,.01,.1,.01h.2c.16,0,.33-.01,.49-.02,.02,0,.04,0,.06,0,.08,0,.16,0,.24-.01,.12,0,.24-.01,.36-.02h.21l.36-.03s.05-.01,.08-.01c.15-.01,.31-.03,.47-.05,.2-.02,.4-.04,.6-.07,.05-.01,.1-.03,.15-.03,.43-.07,.86-.14,1.28-.22,0,0,.02,0,.03-.01,.1-.02,.19-.05,.29-.08,.39-.08,.77-.17,1.16-.28,.06-.02,.11-.03,.17-.05s.12-.04,.18-.06c.28-.09,.57-.18,.85-.27,.07-.02,.14-.05,.21-.07,.05-.02,.09-.04,.13-.06,.01-.01,.02-.01,.03-.01,.21-.08,.42-.16,.63-.24,.2-.07,.4-.15,.59-.24,.16-.07,.31-.15,.46-.22,.3-.13,.59-.26,.88-.41,.25-.13,.49-.27,.73-.41,.19-.11,.38-.2,.56-.31,.86-.52,1.67-1.09,2.45-1.71,.12-.1,.23-.2,.34-.29,.27-.23,.53-.45,.79-.68,.16-.15,.31-.3,.46-.45,.2-.2,.4-.39,.6-.59,.16-.17,.31-.35,.47-.53,.17-.19,.35-.38,.51-.58,.16-.19,.3-.39,.45-.58,.16-.2,.32-.39,.46-.6,.15-.21,.29-.43,.44-.64,.13-.2,.27-.39,.39-.59,.17-.27,.31-.54,.47-.81,.09-.16,.19-.32,.27-.48,.24-.45,.46-.9,.66-1.35,1.21-2.74,1.8-5.6,1.83-8.44,.01-.05,.01-.09,.01-.14v-.12c0-5.45-2.06-10.82-5.8-15.07Z"/><path d="M34.64,16.23c-.01,.47-.02,.93-.02,1.35,0-.45,0-.89,.02-1.35Z"/></g><path d="M71.89,77.07c0-.09-.01-.17-.01-.26,0-.08-.01-.14-.01-.22-.02-.24-.02-.47-.05-.71h0c-.02-.21-.05-.4-.07-.6-.01-.11-.03-.21-.04-.31-.02-.17-.04-.33-.06-.49-.02-.11-.05-.22-.07-.33-.02-.13-.05-.27-.08-.4-.02-.12-.04-.24-.07-.36-.02-.1-.03-.2-.06-.3-.04-.2-.1-.41-.16-.61-.02-.09-.04-.18-.07-.27-.03-.12-.06-.24-.1-.36,0-.05-.02-.09-.03-.13-.14-.46-.29-.92-.46-1.36-.76-2-1.79-3.86-3.08-5.56-.5-.65-1.19-1.38-1.65-2.15-.01-.02-.02-.03-.03-.05-.19-.33-.34-.68-.41-1.03h0c-.04-.2-.06-.39-.07-.59v-.4c0-.11,0-.21,.01-.32v-.05c.02-.46,.06-.92,.06-1.33V17.57c0-.46-.01-.93-.02-1.39v-.04c-.01-.15-.02-.3-.02-.45-.02-.23-.03-.45-.04-.69,0-.06-.01-.13-.01-.19v-.07c-.02-.28-.05-.54-.08-.82-.02-.2-.04-.4-.07-.6-.06-.46-.13-.92-.22-1.37-.01-.03-.01-.07-.02-.1-.01-.04-.02-.08-.03-.11-.09-.44-.2-.87-.33-1.3-.07-.21-.15-.4-.22-.6-.08-.25-.17-.5-.27-.75-.11-.27-.24-.52-.37-.78-.06-.13-.12-.27-.19-.41-.01,0-.01-.03-.02-.04,0-.02-.03-.04-.04-.06-.23-.43-.48-.84-.76-1.24-.28-.4-.58-.77-.88-1.13-.07-.08-.12-.17-.19-.25-.09-.1-.2-.19-.29-.3-.3-.32-.59-.63-.91-.92-.11-.1-.22-.18-.32-.27-.33-.28-.66-.56-1-.81-.09-.06-.18-.11-.26-.17-.38-.26-.77-.52-1.17-.75-.06-.03-.13-.06-.19-.09-.43-.24-.87-.46-1.31-.66-.07-.02-.14-.04-.2-.07-.45-.19-.91-.36-1.37-.5-.15-.05-.31-.08-.46-.12-.38-.1-.77-.21-1.16-.29-.56-.11-2.4-.18-2.96-.23V4.63c3.58,.32,7.71,2.35,9.44,5.51,.18,.33,.35,.68,.5,1.04,.02,.06,.05,.13,.07,.2,.12,.31,.23,.64,.33,.97,.03,.11,.06,.22,.09,.34,.08,.3,.14,.61,.2,.93,.02,.11,.04,.22,.06,.34,.06,.42,.1,.86,.12,1.3,.07,2.12,0,4.28,0,6.4V58.18c0,.37-.01,.76-.02,1.15-.04,1.78-.08,3.67,.74,5.22,.58,1.09,1.44,1.99,2.22,2.94,.31,.38,.61,.77,.88,1.18,1.04,1.62,1.79,3.38,2.25,5.25,.84,3.41,.62,7.07-.65,10.35-1.29,3.31-3.6,6.13-6.48,8.1-.12,.08-.24,.17-.36,.24-1.7,1.1-3.57,1.92-5.53,2.38-.2,.05-.4,.09-.6,.13-.19,.04-.39,.07-.59,.1l-.18,.03c-.25,.04-.5,.07-.75,.09-.02,.01-.04,.01-.06,.01-.07,.01-.15,.01-.22,.02-.04,.01-.09,.01-.13,.01-.02,.01-.03,.01-.05,.01-.39,.03-.78,.04-1.16,.05h-.24c-.39-.01-.77-.03-1.16-.05-.02,0-.03,0-.05-.01h-.1c-.08-.01-.17-.02-.25-.03-.02,0-.04,0-.06-.01-.25-.02-.5-.05-.75-.09-.06,0-.12-.01-.18-.03-.05,0-.1-.01-.15-.01-.08,0-.17-.03-.25-.05-.06-.01-.13-.02-.19-.04-.2-.03-.4-.07-.6-.13-1.13-.24-2.21-.61-3.25-1.09-.01,0-.03,0-.04-.02-.39-.18-.78-.38-1.15-.59-.07-.04-.14-.08-.21-.12-.3-.17-.59-.36-.88-.56-.01,0-.03-.01-.04-.02-.11-.07-.22-.14-.32-.22-.25-.18-.49-.36-.73-.55-2.09-1.67-3.76-3.81-4.9-6.21-.11-.23-.21-.46-.32-.7-.06-.16-.14-.32-.2-.48-.02-.06-.04-.13-.07-.19-.07-.19-.14-.38-.2-.57-.05-.15-.11-.3-.16-.45-.02-.07-.04-.13-.06-.2-.1-.34-.2-.69-.28-1.04-.01-.05-.02-.09-.03-.14-.88-3.81-.47-7.76,1.13-11.25,.03-.07,.06-.14,.09-.2-.01,0-.02,.03-.03,.04,.05-.1,.1-.21,.15-.31-.04,.09-.08,.18-.12,.27,.17-.37,.36-.74,.56-1.09,.14-.24,.28-.48,.43-.72,.23-.37,.47-.74,.74-1.09,.08-.12,.16-.23,.25-.34,.27-.35,.56-.7,.87-1.04,.1-.12,.2-.24,.27-.36,.03-.04,.06-.06,.08-.1,1.44-1.92,1.52-4.08,1.49-6.32-.01-.56-.02-1.13-.02-1.7v-21.71c0-1.26-1.02-2.29-2.29-2.29s-2.28,1.03-2.28,2.29v20.59c0,1.26,.18,2.7,.07,4.07v.03c-.06,.7-.2,1.37-.48,1.99,0,.02-.01,.03-.03,.05-.07,.18-.17,.35-.28,.52-3.74,4.25-5.8,9.62-5.8,15.07,0,.09,0,.18,.01,.26,.03,2.84,.62,5.7,1.83,8.44,.2,.45,.42,.9,.66,1.35,.08,.16,.18,.32,.27,.48,.16,.27,.3,.54,.47,.81,.12,.2,.26,.39,.39,.59,.15,.21,.29,.43,.44,.64,.14,.21,.3,.4,.46,.6,.15,.19,.29,.39,.45,.58,.16,.2,.34,.39,.51,.58,.16,.18,.31,.36,.47,.53,.2,.2,.4,.39,.6,.59,.15,.15,.3,.3,.46,.45,.26,.23,.52,.45,.79,.68,.11,.09,.22,.19,.34,.29,.78,.62,1.59,1.19,2.45,1.71,.18,.11,.37,.2,.56,.31,.24,.14,.48,.28,.73,.41,.29,.15,.58,.28,.88,.41,.15,.07,.3,.15,.46,.22,.19,.09,.39,.17,.59,.24,.14,.06,.29,.11,.43,.16,.08,.03,.15,.06,.23,.09,.04,.02,.08,.04,.13,.06,.07,.02,.14,.05,.21,.07,.28,.09,.57,.18,.85,.27,.12,.03,.24,.08,.35,.11,.39,.11,.77,.2,1.16,.28,.1,.03,.19,.06,.29,.08,.01,0,.02,0,.03,.01,.42,.08,.85,.15,1.28,.22,.05,0,.1,.02,.15,.03h.02c.37,.05,.75,.09,1.13,.13l.36,.03h.21c.12,0,.24,.02,.36,.02,.08,.01,.16,.01,.24,.01,.02,0,.04,0,.06,0,.16,0,.33,.02,.49,.02h.2s.06-.01,.1-.01h.02c.14,0,.28-.01,.43-.01,.08,0,.16,0,.24-.01,.17,0,.34-.01,.51-.02h.06s.09-.01,.14-.02c.07,0,.14-.01,.22-.01,.03,0,.05-.01,.08-.01,.15-.01,.31-.03,.47-.05,.2-.02,.4-.04,.6-.07,.4-.05,.79-.12,1.17-.19,.01,0,.03,0,.04-.01,.08-.01,.14-.03,.22-.05,0,0,.02,0,.03-.01,.36-.07,.72-.15,1.08-.25,.12-.03,.25-.07,.37-.11,.06-.02,.11-.03,.17-.05s.12-.04,.18-.06c.2-.05,.39-.11,.58-.17,.09-.03,.18-.07,.27-.1,.08-.03,.16-.06,.23-.09,.04-.02,.07-.03,.11-.04,.01-.01,.02-.01,.03-.01,.21-.08,.42-.16,.63-.24,.21-.09,.4-.18,.6-.27,.08-.04,.18-.07,.26-.12,.03-.02,.07-.03,.1-.04,.09-.04,.18-.08,.27-.13h.01c.45-.22,.89-.46,1.32-.71,.13-.08,.25-.16,.38-.23,.31-.19,.62-.38,.92-.59,.01,0,.01-.01,.02-.01t.02-.02c4.59-3.11,7.95-7.93,9.29-13.33t.01-.02c.09-.37,.17-.75,.24-1.13,.02-.1,.04-.21,.06-.31,.01-.04,.02-.07,.02-.1,.01-.03,.02-.06,.02-.08v-.02c.06-.36,.1-.71,.15-1.07,.01-.09,.02-.18,.03-.27,.05-.48,.08-.98,.09-1.46,.01-.05,.01-.09,.01-.14v-.12c0-.39,0-.78-.01-1.17Z"/><path class="cls-1" d="M65.57,70.59s0-.02-.01-.03c-.03-.06-.05-.12-.08-.17-.17-.37-.36-.74-.56-1.09-.14-.24-.28-.48-.43-.72-.23-.37-.47-.74-.74-1.09-.78-.95-1.64-1.85-2.22-2.94-.82-1.55-.78-3.44-.74-5.22,.01-.39,.02-.78,.02-1.15V21.66c0-2.12,.07-4.28,0-6.4-.02-.44-.06-.88-.12-1.3-.02-.12-.04-.23-.06-.34-.06-.32-.12-.63-.2-.93-.03-.12-.06-.23-.09-.34-.1-.33-.21-.66-.33-.97-.02-.07-.05-.14-.07-.2-.15-.36-.32-.71-.5-1.04-1.73-3.16-5.86-5.19-9.44-5.51-3.59,.32-7.71,2.35-9.44,5.51-.18,.33-.35,.68-.5,1.04-.02,.06-.05,.13-.07,.2-.12,.31-.23,.64-.33,.97-.03,.11-.06,.22-.09,.34-.08,.3-.14,.61-.2,.93-.02,.11-.04,.22-.06,.34v.02c-.03,.21-.05,.41-.07,.62h0c-.02,.22-.04,.44-.05,.66-.07,2.12,0,4.28,0,6.4V57.63c0,.57,.01,1.14,.02,1.7,.04,1.78,.08,3.67-.74,5.22-.58,1.09-1.44,1.99-2.22,2.94-.27,.35-.51,.72-.74,1.09-.15,.24-.29,.48-.43,.72-.2,.35-.39,.72-.56,1.09-.03,.06-.06,.13-.09,.2-1.6,3.49-2.01,7.44-1.13,11.25,.01,.05,.02,.09,.03,.14,.08,.35,.18,.7,.28,1.04,.02,.07,.04,.13,.06,.2,.05,.15,.11,.3,.16,.45,.06,.19,.13,.38,.2,.57,.03,.06,.05,.13,.07,.19,.06,.16,.14,.32,.2,.48,.11,.24,.21,.47,.32,.7,1.14,2.4,2.81,4.54,4.9,6.21,.24,.19,.48,.37,.73,.55,.1,.08,.21,.15,.32,.22,.01,.01,.03,.02,.04,.02,1.7,1.1,3.57,1.92,5.53,2.38,.2,.06,.4,.1,.6,.13,.19,.04,.39,.07,.59,.1,.06,.02,.12,.03,.18,.03,.25,.04,.5,.07,.75,.09,.02,.01,.04,.01,.06,.01,.07,.01,.15,.01,.22,.02,.04,.01,.09,.01,.13,.01,.02,.01,.03,.01,.05,.01,.39,.02,.77,.04,1.16,.05h.24c.39-.01,.77-.03,1.16-.05,.02,0,.03,0,.05-.01,.04,0,.09,0,.13-.01,.07-.01,.15-.01,.22-.02,.02,0,.04,0,.06-.01,.25-.02,.5-.05,.75-.09l.18-.03c.2-.03,.4-.06,.59-.1,.2-.04,.4-.08,.6-.13,1.96-.46,3.83-1.28,5.53-2.38,.12-.07,.24-.16,.36-.24,.25-.18,.49-.36,.73-.55,2.09-1.67,3.76-3.81,4.9-6.21,.11-.23,.21-.46,.32-.7,.06-.16,.14-.32,.2-.48t0-.02c.06-.16,.11-.32,.17-.47,.03-.09,.06-.18,.09-.27,.05-.15,.11-.3,.16-.45,0-.01,.01-.02,.01-.03,.02-.06,.03-.11,.05-.17,.01-.06,.03-.12,.05-.17,.08-.28,.16-.58,.23-.87,.01-.05,.02-.09,.03-.14,.88-3.81,.47-7.76-1.13-11.25Zm-5.48,8.43c-.14,2.69-1.3,4.99-3.09,6.67-1.66,1.67-3.88,2.75-6.45,2.88-.14,.03-.27,.04-.41,.04h-.14c-.2,.01-.39-.01-.56-.04-3.29-.18-6.2-2-7.92-4.64-.17-.25-.32-.5-.46-.77h0c-.15-.28-.28-.56-.4-.84,0-.01,0-.02,0-.03-.09-.22-.17-.44-.24-.67-.04-.1-.08-.2-.11-.3-.04-.14-.07-.29-.11-.44-.05-.2-.1-.41-.14-.62-.01-.06-.02-.12-.03-.18-.08-.52-.14-1.05-.14-1.59,0-.47,.05-.94,.12-1.4v-.05c.05-.29,.1-.59,.18-.87,0-.03,.01-.05,.01-.08,.01-.02,.02-.04,.02-.07,.07-.25,.14-.51,.23-.76,.03-.07,.06-.15,.09-.23,.08-.21,.16-.43,.26-.63,.04-.11,.1-.22,.15-.32,.09-.18,.18-.35,.27-.52,.08-.13,.16-.25,.24-.38,.09-.14,.17-.28,.27-.41,.1-.15,.21-.29,.32-.43,.08-.11,.16-.22,.25-.32,.13-.16,.27-.3,.4-.45,.09-.08,.17-.17,.25-.25,.08-.08,.16-.15,.24-.22,.07-.08,.15-.15,.23-.22,.01,0,.01-.01,.02-.01,.02-.02,.05-.04,.07-.06,.05-.05,.1-.09,.15-.14,.18-.14,.36-.27,.54-.4,.08-.06,.16-.12,.24-.17,.19-.13,.38-.24,.57-.36,.09-.05,.17-.1,.26-.15,.2-.11,.4-.2,.6-.29,.09-.05,.18-.09,.28-.13,.2-.09,.41-.16,.62-.24,.1-.03,.2-.07,.3-.1,.21-.07,.41-.12,.63-.17h.02s0-.01,0-.01c0-16.44,0-19.86,0-36.3,0-2.95,4.57-2.94,4.57,0,0,16.43,0,19.85,0,36.29,1.46,.34,2.77,1,3.88,1.9,2.25,1.76,3.76,4.44,3.92,7.42,.03,.16,.04,.34,.03,.53,.01,.19,0,.36-.03,.53Z"/><path class="cls-2" d="M53.85,82.32s-.02,0-.03,.02c-.24,.22-.5,.41-.78,.59-.07,.04-.14,.07-.21,.11-.23,.14-.48,.26-.73,.36-.07,.02-.13,.05-.19,.07-.65,.23-1.34,.36-2.03,.36-.08,0-.15,0-.23,0-.22,0-.44-.02-.65-.05-.49-.07-.98-.18-1.43-.37-3.31-1.72-3.81-6.44-1.47-8.91,2.5-2.24,7.12-1.7,8.82,1.58,.83,2.03,.47,4.58-1.07,6.25Z"/></svg>