<?xml version="1.0" encoding="UTF-8"?><svg id="Ebene_1" xmlns="http://www.w3.org/2000/svg" viewBox="0 0 100 100"><defs><style>.cls-1{fill:#fff;}.cls-2{fill:#c7b299;}.cls-3{fill:#ccc;}</style></defs><path d="M98.07,48.94h-5.88c-.86-18.94-14.25-34.67-32.06-39.07,.16-.52,.25-1.05,.25-1.6,0-3.06-2.49-5.55-5.55-5.55h-9.66c-3.06,0-5.55,2.49-5.55,5.55,0,.55,.09,1.08,.25,1.6C22.06,14.27,8.67,30,7.81,48.94H1.93c-1.07,0-1.93,.86-1.93,1.93s.86,1.93,1.93,1.93H26.45c1.44,3.02,5.53,11.17,9.15,14.26,4.97,4.24,11.08,8.01,16.35,10.1,1.69,.67,3.32,1.3,4.85,1.89,3.57,1.37,6.66,2.56,8.36,3.45,1.8,.95,3.48,1.83,4.3,2.26l-.98,2.09c-.44,.94-.06,2.05,.86,2.53l14.8,7.68c.27,.14,.58,.22,.88,.22s.58-.07,.85-.2c.55-.26,.94-.77,1.05-1.37l4.57-24.08c.16-.81-.22-1.64-.95-2.04l-9.21-5.19c-.47-.27-1.03-.32-1.54-.16-.51,.16-.93,.53-1.16,1.02l-.14,.29c-1.25-.84-3.58-2.52-4.85-4.25-.79-1.06-.58-4.97,.12-8.5h24.31c1.07,0,1.93-.87,1.93-1.93s-.86-1.93-1.93-1.93ZM45.17,6.58h9.66c.93,0,1.69,.76,1.69,1.69,0,.3-.08,.58-.22,.83-1.53-.22-3.07-.37-4.64-.43-.07,0-.13-.01-.2-.01-.48-.01-.97-.03-1.46-.03s-.98,.02-1.46,.03c-.07,0-.13,.01-.2,.01-1.57,.06-3.11,.21-4.64,.43-.14-.25-.22-.53-.22-.83,0-.93,.76-1.69,1.69-1.69Zm36.07,62.2l6.2,3.49-3.83,20.17-10.85-5.63,8.48-18.03Zm-4.41,.3l-5.72,12.18c-.87-.45-2.46-1.29-4.16-2.18-1.9-.99-4.92-2.16-8.76-3.64-1.52-.58-3.14-1.21-4.82-1.87-4.89-1.94-10.6-5.47-15.26-9.45-2.4-2.04-5.47-7.55-7.36-11.32h3.34c2.59,2.15,13.34,10.68,21.16,10.68,6.88,0,9.7-6.22,10.47-10.68h4.1c-.6,3.26-1.12,8.32,.71,10.8,1.82,2.46,5.04,4.67,6.3,5.48Zm-36.42-16.28h21.36c-.57,2.62-2.15,6.82-6.52,6.82s-10.43-3.67-14.84-6.82Zm-20.74-3.86c.54-12.01,8.37-22.74,19.7-26.86,1-.37,1.52-1.48,1.15-2.48-.36-1-1.47-1.52-2.47-1.15-12.84,4.67-21.7,16.87-22.24,30.49h-4.13c.89-18.05,14.33-32.85,31.75-35.87,.51-.09,1.03-.17,1.54-.24,.06,0,.12,0,.17-.02,.49-.06,.98-.11,1.46-.16,.17,0,.34-.02,.51-.03,.38-.03,.77-.06,1.15-.08,.58-.03,1.16-.04,1.74-.04s1.16,.01,1.73,.04c.39,.02,.77,.05,1.16,.08,.17,.01,.34,.02,.51,.03,.48,.05,.97,.1,1.45,.16,.06,.01,.12,.02,.18,.02,.51,.07,1.02,.15,1.53,.24,17.43,3.02,30.87,17.81,31.76,35.87H19.67Z"/><polygon class="cls-1" points="87.44 72.27 83.61 92.44 72.76 86.81 81.24 68.78 87.44 72.27"/><path class="cls-2" d="M76.83,69.08l-5.72,12.18c-.87-.45-2.46-1.29-4.16-2.18-1.9-.99-4.92-2.16-8.76-3.64-1.52-.58-3.14-1.21-4.82-1.87-4.89-1.94-10.6-5.47-15.26-9.45-2.4-2.04-5.47-7.55-7.36-11.32h3.34c2.59,2.15,13.34,10.68,21.16,10.68,6.88,0,9.7-6.22,10.47-10.68h4.1c-.6,3.26-1.12,8.32,.71,10.8,1.82,2.46,5.04,4.67,6.3,5.48Z"/><path class="cls-3" d="M88.32,48.94H19.67c.54-12.01,8.37-22.74,19.7-26.86,1-.37,1.52-1.48,1.15-2.48-.36-1-1.47-1.52-2.47-1.15-12.84,4.67-21.7,16.87-22.24,30.49h-4.13c.89-18.05,14.33-32.85,31.75-35.87,.51-.09,1.03-.17,1.54-.24,.06,0,.12,0,.17-.02,.49-.06,.98-.11,1.46-.16,.17,0,.34-.02,.51-.03,.38-.03,.77-.06,1.15-.08,.58-.03,1.16-.04,1.74-.04s1.16,.01,1.73,.04c.39,.02,.77,.05,1.16,.08,.17,.01,.34,.02,.51,.03,.48,.05,.97,.1,1.45,.16,.06,.01,.12,.02,.18,.02,.51,.07,1.02,.15,1.53,.24,17.43,3.02,30.87,17.81,31.76,35.87Z"/></svg>