<?xml version="1.0" encoding="UTF-8"?><svg id="Ebene_1" xmlns="http://www.w3.org/2000/svg" viewBox="0 0 100 100"><defs><style>.cls-1{fill:#c69c6d;}.cls-2{fill:#ccc;}.cls-3{fill:#b3b3b3;}</style></defs><g><path d="M50,38.93h-.06c.08-.04,.15-.09,.22-.15,.83-.66,.96-1.87,.3-2.7-3.61-4.53-2.54-6.4-.77-9.51,1.16-2.05,2.48-4.36,2.48-7.61s-1.07-5.96-2.01-8.31c-1.39-3.47-1.97-5.23-.07-7.48,.68-.82,.58-2.03-.23-2.72-.81-.68-2.02-.58-2.71,.23-3.48,4.12-1.93,7.99-.56,11.4,.85,2.12,1.73,4.32,1.73,6.88,0,2.23-.96,3.92-1.97,5.7-1.94,3.4-4.13,7.25,1.11,13.82,.16,.2,.34,.35,.55,.47-20.53,.35-40.61,6.09-40.61,18.43,0,23.5,19.12,42.62,42.62,42.62s42.58-19.12,42.58-42.62c0-12.74-21.4-18.45-42.6-18.45Zm.02,57.22c-21.38,0-38.77-17.39-38.77-38.77,0-5.33,6.22-8.7,11.44-10.58,7.17-2.59,16.87-4.02,27.31-4.02s20.14,1.43,27.31,4.02c5.22,1.88,11.44,5.25,11.44,10.58,0,21.38-17.37,38.77-38.73,38.77Z"/><path class="cls-2" d="M77.31,46.8c-7.17-2.59-16.87-4.02-27.31-4.02s-20.14,1.43-27.31,4.02c-5.22,1.88-11.44,5.25-11.44,10.58,0,21.38,17.39,38.77,38.77,38.77s38.73-17.39,38.73-38.77c0-5.33-6.22-8.7-11.44-10.58Zm-27.29,24.73c-17.74,0-36.6-4.96-36.6-14.15s18.86-14.15,36.6-14.15,36.6,4.96,36.6,14.15-18.86,14.15-36.6,14.15Z"/></g><path d="M50.02,43.23c-17.74,0-36.6,4.96-36.6,14.15s18.86,14.15,36.6,14.15,36.6-4.96,36.6-14.15-18.86-14.15-36.6-14.15Zm0,24.46c-8.09,0-15.3-1.02-20.88-2.56,5.88-1.63,13.24-2.53,20.88-2.53s14.97,.9,20.87,2.53c-5.58,1.54-12.78,2.56-20.87,2.56Zm26.76-4.64c-.05-.03-.11-.05-.17-.07-6.82-2.69-16.52-4.23-26.59-4.23s-19.81,1.54-26.6,4.23c-.05,.02-.11,.04-.16,.07-3.8-1.73-5.99-3.74-5.99-5.67,0-4.86,14.01-10.3,32.75-10.3s32.75,5.44,32.75,10.3c0,1.93-2.18,3.94-5.99,5.67Z"/><path class="cls-3" d="M82.77,57.38c0,1.93-2.18,3.94-5.99,5.67-.05-.03-.11-.05-.17-.07-6.82-2.69-16.52-4.23-26.59-4.23s-19.81,1.54-26.6,4.23c-.05,.02-.11,.04-.16,.07-3.8-1.73-5.99-3.74-5.99-5.67,0-4.86,14.01-10.3,32.75-10.3s32.75,5.44,32.75,10.3Z"/><path class="cls-1" d="M70.89,65.13c-5.58,1.54-12.78,2.56-20.87,2.56s-15.3-1.02-20.88-2.56c5.88-1.63,13.24-2.53,20.88-2.53s14.97,.9,20.87,2.53Z"/><path d="M61.31,38.48c.38,.47,.94,.72,1.51,.72,.42,0,.84-.14,1.2-.42,.83-.66,.96-1.87,.3-2.7-3.61-4.53-2.54-6.4-.78-9.52,1.17-2.04,2.48-4.36,2.48-7.61s-1.07-5.96-2.01-8.31c-1.39-3.47-1.97-5.23-.07-7.48,.69-.81,.58-2.03-.23-2.71-.81-.69-2.02-.58-2.71,.23-3.48,4.12-1.93,7.98-.56,11.39,.85,2.13,1.73,4.33,1.73,6.88,0,2.23-.96,3.92-1.98,5.7-1.94,3.4-4.13,7.25,1.11,13.82Z"/><path d="M33.6,38.48c.38,.47,.94,.72,1.5,.72,.42,0,.85-.14,1.2-.42,.83-.66,.96-1.87,.3-2.7-3.62-4.53-2.55-6.4-.78-9.52,1.16-2.04,2.48-4.36,2.48-7.61s-1.07-5.96-2.01-8.31c-1.39-3.47-1.97-5.23-.07-7.48,.69-.81,.58-2.03-.23-2.71-.81-.69-2.03-.58-2.71,.23-3.48,4.12-1.93,7.98-.56,11.39,.85,2.13,1.73,4.33,1.73,6.88,0,2.23-.96,3.92-1.98,5.7-1.94,3.4-4.13,7.25,1.11,13.82Z"/></svg>