<?xml version="1.0" encoding="UTF-8"?><svg id="Ebene_1" xmlns="http://www.w3.org/2000/svg" viewBox="0 0 100 100"><defs><style>.cls-1{fill:#009245;}.cls-2{fill:#8cc63f;}</style></defs><path d="M83,27.24c-.66-.6-1.37-1.15-2.14-1.64,1.18-5.36-.56-11.01-4.64-14.77-2.87-2.64-6.6-4.1-10.5-4.1-.15,0-.3,.01-.45,.01-.21-.05-.44-.07-.67-.04-.24,.03-.49,.06-.73,.1-.67-.98-1.44-1.89-2.32-2.69-2.87-2.65-6.61-4.11-10.52-4.11-4.33,0-8.5,1.83-11.43,5.01l-.02,.02c-.74-.11-1.5-.17-2.25-.17-4.33,0-8.49,1.83-11.42,5-3.48,3.78-4.83,8.94-3.74,13.87-2.31,.84-4.39,2.22-6.08,4.06-5.8,6.3-5.4,16.14,.9,21.95,2.88,2.65,6.62,4.11,10.53,4.11,.23,0,.47-.01,.71-.02,1.99,3.08,11.98,18.9,12.68,27.72,.78,9.8,.05,13.41,.05,13.43-.13,.56,0,1.16,.34,1.62,.29,.38,2.78,3.4,9.77,3.4,.84,0,1.75-.04,2.73-.14,8.35-.84,10.42-2.92,10.92-3.78,.19-.33,.28-.71,.26-1.09,0-.13-.61-13.66,2.08-23.81,2.13-7.98,4.95-14.49,6.1-16.99,4.08-.18,7.96-1.98,10.74-4.99,2.81-3.05,4.27-7.02,4.1-11.17-.17-4.14-1.95-7.97-5-10.79Zm-19.76,42.93c-2.44,9.19-2.34,20.56-2.24,24-.83,.45-2.92,1.28-7.59,1.75-4.91,.49-7.4-.62-8.41-1.29,.21-1.86,.45-5.98-.14-13.39-.71-8.88-9.18-23.04-12.43-28.19,.59-.2,1.17-.43,1.73-.7l11.83,14.15c.38,.46,.94,.71,1.52,.71,.19,0,.39-.03,.58-.09,.77-.23,1.31-.91,1.39-1.7l1.51-16.21h.07c1.74,0,3.44-.3,5.06-.85l2.3,12.45c.16,.83,.82,1.47,1.65,1.6,.1,.01,.2,.02,.3,.02,.73,0,1.4-.4,1.75-1.06l4.4-8.35c.8,.33,1.62,.6,2.47,.79-1.41,3.18-3.83,9.14-5.75,16.36Zm-25.72-19.98c.5-.42,.98-.86,1.42-1.35,.89-.96,1.65-2.02,2.26-3.16,1.73,1.42,3.73,2.44,5.86,3.01l-1.08,11.63-8.46-10.13Zm22.56-2.16c.56,.74,1.18,1.43,1.87,2.07,.36,.34,.74,.65,1.14,.95l-1.81,3.44-1.2-6.46Zm20.91-1.51c-2.19,2.37-5.29,3.73-8.52,3.73-1.45,0-2.88-.27-4.21-.79-1.33-.52-2.56-1.28-3.63-2.27-.94-.87-1.71-1.87-2.32-2.99,2.05-2.38,4.32-5.85,4.16-9.4-.05-1.09-.99-1.94-2.07-1.89-1.09,.05-1.93,.97-1.88,2.07,.09,2.03-1.44,4.85-4.1,7.62-2.06,1.71-4.66,2.65-7.36,2.65-2.91,0-5.7-1.08-7.84-3.06-.38-.35-.75-.75-1.17-1.28-.46-.57-1.21-.84-1.93-.7-.72,.15-1.3,.68-1.51,1.39-.51,1.72-1.38,3.26-2.58,4.56-2.18,2.37-5.29,3.73-8.51,3.73-2.92,0-5.7-1.08-7.85-3.06-4.69-4.33-4.99-11.67-.67-16.36,1.6-1.74,3.66-2.92,5.97-3.44,.51-.04,3.8-.22,7.71,1.99,.3,.18,.64,.26,.97,.26,.69,0,1.36-.36,1.72-1,.54-.95,.21-2.16-.74-2.7-3.52-2-6.68-2.45-8.54-2.52-.9-3.73,.1-7.65,2.73-10.52,2.18-2.36,5.28-3.72,8.51-3.72,.87,0,1.74,.1,2.59,.29,.75,.17,1.53-.1,2-.71,.2-.25,.39-.49,.59-.71,2.19-2.37,5.29-3.73,8.52-3.73,2.91,0,5.7,1.09,7.84,3.06,.4,.37,.77,.77,1.11,1.19-2.17,1.28-3.91,3.29-5.05,5.93-.44,1.01,.02,2.17,1.02,2.61,.26,.11,.53,.16,.79,.16,.76,0,1.49-.44,1.82-1.19,1.15-2.66,2.96-4.3,5.39-4.9,.58-.08,1.17-.13,1.76-.13,2.92,0,5.69,1.08,7.83,3.05,3.34,3.08,4.57,7.87,3.13,12.19-.31,.93,.11,1.96,.99,2.4,.98,.49,1.88,1.11,2.66,1.82,2.27,2.1,3.6,4.96,3.72,8.05,.13,3.09-.95,6.04-3.05,8.32Z"/><path class="cls-1" d="M63.24,70.17c-2.44,9.19-2.34,20.56-2.24,24-.83,.45-2.92,1.28-7.59,1.75-4.91,.49-7.4-.62-8.41-1.29,.21-1.86,.45-5.98-.14-13.39-.71-8.88-9.18-23.04-12.43-28.19,.59-.2,1.17-.43,1.73-.7l11.83,14.15c.38,.46,.94,.71,1.52,.71,.19,0,.39-.03,.58-.09,.77-.23,1.31-.91,1.39-1.7l1.51-16.21h.07c1.74,0,3.44-.3,5.06-.85l2.3,12.45c.16,.83,.82,1.47,1.65,1.6,.1,.01,.2,.02,.3,.02,.73,0,1.4-.4,1.75-1.06l4.4-8.35c.8,.33,1.62,.6,2.47,.79-1.41,3.18-3.83,9.14-5.75,16.36Z"/><path class="cls-2" d="M84.04,38.2c.13,3.09-.95,6.04-3.05,8.32-2.19,2.37-5.29,3.73-8.52,3.73-1.45,0-2.88-.27-4.21-.79-1.33-.52-2.56-1.28-3.63-2.27-.94-.87-1.71-1.87-2.32-2.99,2.05-2.38,4.32-5.85,4.16-9.4-.05-1.09-.99-1.94-2.07-1.89-1.09,.05-1.93,.97-1.88,2.07,.09,2.03-1.44,4.85-4.1,7.62-2.06,1.71-4.66,2.65-7.36,2.65-2.91,0-5.7-1.08-7.84-3.06-.38-.35-.75-.75-1.17-1.28-.46-.57-1.21-.84-1.93-.7-.72,.15-1.3,.68-1.51,1.39-.51,1.72-1.38,3.26-2.58,4.56-2.18,2.37-5.29,3.73-8.51,3.73-2.92,0-5.7-1.08-7.85-3.06-4.69-4.33-4.99-11.67-.67-16.36,1.6-1.74,3.66-2.92,5.97-3.44,.51-.04,3.8-.22,7.71,1.99,.3,.18,.64,.26,.97,.26,.69,0,1.36-.36,1.72-1,.54-.95,.21-2.16-.74-2.7-3.52-2-6.68-2.45-8.54-2.52-.9-3.73,.1-7.65,2.73-10.52,2.18-2.36,5.28-3.72,8.51-3.72,.87,0,1.74,.1,2.59,.29,.75,.17,1.53-.1,2-.71,.2-.25,.39-.49,.59-.71,2.19-2.37,5.29-3.73,8.52-3.73,2.91,0,5.7,1.09,7.84,3.06,.4,.37,.77,.77,1.11,1.19-2.17,1.28-3.91,3.29-5.05,5.93-.44,1.01,.02,2.17,1.02,2.61,.26,.11,.53,.16,.79,.16,.76,0,1.49-.44,1.82-1.19,1.15-2.66,2.96-4.3,5.39-4.9,.58-.08,1.17-.13,1.76-.13,2.92,0,5.69,1.08,7.83,3.05,3.34,3.08,4.57,7.87,3.13,12.19-.31,.93,.11,1.96,.99,2.4,.98,.49,1.88,1.11,2.66,1.82,2.27,2.1,3.6,4.96,3.72,8.05Z"/></svg>